<mxfile host="app.diagrams.net" modified="2023-01-26T09:02:51.028Z" agent="5.0 (Windows NT 10.0; Win64; x64) AppleWebKit/537.36 (KHTML, like Gecko) Chrome/109.0.0.0 Safari/537.36" etag="dvacpGBGAMWLP18Egns9" version="20.8.11" type="github">
  <diagram name="Pagina-1" id="YSNBQgDCkUt4jB2jJ9PV">
    <mxGraphModel dx="4324" dy="3162" grid="1" gridSize="5" guides="1" tooltips="1" connect="1" arrows="1" fold="1" page="1" pageScale="1" pageWidth="827" pageHeight="1169" math="0" shadow="0">
      <root>
        <mxCell id="0" />
        <mxCell id="1" parent="0" />
        <mxCell id="_pNcX6U958TQj2iGUCa4-34" value="" style="endArrow=none;html=1;rounded=0;strokeWidth=4;labelBackgroundColor=none;fontColor=default;shadow=0;fillColor=#dae8fc;strokeColor=#6c8ebf;" parent="1" edge="1">
          <mxGeometry width="50" height="50" relative="1" as="geometry">
            <mxPoint x="-1390.18" y="-2250" as="sourcePoint" />
            <mxPoint x="-1390.18" y="-2290" as="targetPoint" />
          </mxGeometry>
        </mxCell>
        <mxCell id="_pNcX6U958TQj2iGUCa4-36" value="" style="endArrow=none;html=1;rounded=0;shadow=0;strokeWidth=4;" parent="1" edge="1">
          <mxGeometry width="50" height="50" relative="1" as="geometry">
            <mxPoint x="-1410" y="-2250" as="sourcePoint" />
            <mxPoint x="-1370" y="-2250" as="targetPoint" />
          </mxGeometry>
        </mxCell>
        <mxCell id="_pNcX6U958TQj2iGUCa4-38" value="" style="endArrow=none;html=1;rounded=0;shadow=0;strokeWidth=4;" parent="1" edge="1">
          <mxGeometry width="50" height="50" relative="1" as="geometry">
            <mxPoint x="-1430" y="-2230" as="sourcePoint" />
            <mxPoint x="-1350" y="-2230" as="targetPoint" />
          </mxGeometry>
        </mxCell>
        <mxCell id="_pNcX6U958TQj2iGUCa4-39" value="" style="endArrow=none;html=1;rounded=0;shadow=0;strokeWidth=4;" parent="1" edge="1">
          <mxGeometry width="50" height="50" relative="1" as="geometry">
            <mxPoint x="-1430" y="-2230" as="sourcePoint" />
            <mxPoint x="-1410" y="-2250" as="targetPoint" />
          </mxGeometry>
        </mxCell>
        <mxCell id="_pNcX6U958TQj2iGUCa4-40" value="" style="endArrow=none;html=1;rounded=0;shadow=0;strokeWidth=4;" parent="1" edge="1">
          <mxGeometry width="50" height="50" relative="1" as="geometry">
            <mxPoint x="-1350" y="-2230" as="sourcePoint" />
            <mxPoint x="-1370" y="-2250" as="targetPoint" />
          </mxGeometry>
        </mxCell>
        <mxCell id="_pNcX6U958TQj2iGUCa4-41" value="" style="endArrow=none;html=1;rounded=0;shadow=0;strokeWidth=4;" parent="1" edge="1">
          <mxGeometry width="50" height="50" relative="1" as="geometry">
            <mxPoint x="-1800" y="-2137" as="sourcePoint" />
            <mxPoint x="-1420" y="-2230" as="targetPoint" />
            <Array as="points">
              <mxPoint x="-1420" y="-2137" />
            </Array>
          </mxGeometry>
        </mxCell>
        <mxCell id="_pNcX6U958TQj2iGUCa4-81" value="" style="endArrow=none;html=1;rounded=0;shadow=0;strokeWidth=4;" parent="1" edge="1">
          <mxGeometry width="50" height="50" relative="1" as="geometry">
            <mxPoint x="-1410" y="-2017" as="sourcePoint" />
            <mxPoint x="-1370" y="-2017" as="targetPoint" />
          </mxGeometry>
        </mxCell>
        <mxCell id="_pNcX6U958TQj2iGUCa4-82" value="" style="endArrow=none;html=1;rounded=0;shadow=0;strokeWidth=4;" parent="1" edge="1">
          <mxGeometry width="50" height="50" relative="1" as="geometry">
            <mxPoint x="-1400" y="-1997" as="sourcePoint" />
            <mxPoint x="-1380" y="-1997" as="targetPoint" />
          </mxGeometry>
        </mxCell>
        <mxCell id="_pNcX6U958TQj2iGUCa4-83" value="" style="endArrow=none;html=1;rounded=0;shadow=0;strokeWidth=4;" parent="1" edge="1">
          <mxGeometry width="50" height="50" relative="1" as="geometry">
            <mxPoint x="-1380" y="-1997" as="sourcePoint" />
            <mxPoint x="-1370" y="-2017" as="targetPoint" />
          </mxGeometry>
        </mxCell>
        <mxCell id="_pNcX6U958TQj2iGUCa4-84" value="" style="endArrow=none;html=1;rounded=0;shadow=0;strokeWidth=4;" parent="1" edge="1">
          <mxGeometry width="50" height="50" relative="1" as="geometry">
            <mxPoint x="-1400" y="-1997" as="sourcePoint" />
            <mxPoint x="-1410" y="-2017" as="targetPoint" />
          </mxGeometry>
        </mxCell>
        <mxCell id="_pNcX6U958TQj2iGUCa4-85" value="" style="endArrow=none;html=1;rounded=0;shadow=0;strokeWidth=4;exitX=0.5;exitY=0;exitDx=0;exitDy=0;fillColor=#ffe6cc;strokeColor=#d79b00;" parent="1" source="_pNcX6U958TQj2iGUCa4-145" edge="1">
          <mxGeometry width="50" height="50" relative="1" as="geometry">
            <mxPoint x="-1390" y="-1977" as="sourcePoint" />
            <mxPoint x="-1390" y="-1997" as="targetPoint" />
          </mxGeometry>
        </mxCell>
        <mxCell id="_pNcX6U958TQj2iGUCa4-92" value="" style="endArrow=none;html=1;rounded=0;shadow=0;strokeWidth=4;" parent="1" edge="1">
          <mxGeometry width="50" height="50" relative="1" as="geometry">
            <mxPoint x="-1350" y="-2018" as="sourcePoint" />
            <mxPoint x="-1310" y="-2018" as="targetPoint" />
          </mxGeometry>
        </mxCell>
        <mxCell id="_pNcX6U958TQj2iGUCa4-93" value="" style="endArrow=none;html=1;rounded=0;shadow=0;strokeWidth=4;" parent="1" edge="1">
          <mxGeometry width="50" height="50" relative="1" as="geometry">
            <mxPoint x="-1340" y="-1998" as="sourcePoint" />
            <mxPoint x="-1320" y="-1998" as="targetPoint" />
          </mxGeometry>
        </mxCell>
        <mxCell id="_pNcX6U958TQj2iGUCa4-94" value="" style="endArrow=none;html=1;rounded=0;shadow=0;strokeWidth=4;" parent="1" edge="1">
          <mxGeometry width="50" height="50" relative="1" as="geometry">
            <mxPoint x="-1320" y="-1998" as="sourcePoint" />
            <mxPoint x="-1310" y="-2018" as="targetPoint" />
          </mxGeometry>
        </mxCell>
        <mxCell id="_pNcX6U958TQj2iGUCa4-95" value="" style="endArrow=none;html=1;rounded=0;shadow=0;strokeWidth=4;" parent="1" edge="1">
          <mxGeometry width="50" height="50" relative="1" as="geometry">
            <mxPoint x="-1340" y="-1998" as="sourcePoint" />
            <mxPoint x="-1350" y="-2018" as="targetPoint" />
          </mxGeometry>
        </mxCell>
        <mxCell id="_pNcX6U958TQj2iGUCa4-96" value="" style="endArrow=none;html=1;rounded=0;shadow=0;strokeWidth=4;exitX=0.5;exitY=0;exitDx=0;exitDy=0;fillColor=#0050ef;strokeColor=#001DBC;" parent="1" source="_pNcX6U958TQj2iGUCa4-147" edge="1">
          <mxGeometry width="50" height="50" relative="1" as="geometry">
            <mxPoint x="-1330" y="-1978" as="sourcePoint" />
            <mxPoint x="-1330" y="-1998" as="targetPoint" />
          </mxGeometry>
        </mxCell>
        <mxCell id="_pNcX6U958TQj2iGUCa4-99" value="" style="endArrow=none;html=1;rounded=0;shadow=0;strokeWidth=4;" parent="1" edge="1">
          <mxGeometry width="50" height="50" relative="1" as="geometry">
            <mxPoint x="-1290" y="-2018" as="sourcePoint" />
            <mxPoint x="-1250" y="-2018" as="targetPoint" />
          </mxGeometry>
        </mxCell>
        <mxCell id="_pNcX6U958TQj2iGUCa4-100" value="" style="endArrow=none;html=1;rounded=0;shadow=0;strokeWidth=4;" parent="1" edge="1">
          <mxGeometry width="50" height="50" relative="1" as="geometry">
            <mxPoint x="-1280" y="-1998" as="sourcePoint" />
            <mxPoint x="-1260" y="-1998" as="targetPoint" />
          </mxGeometry>
        </mxCell>
        <mxCell id="_pNcX6U958TQj2iGUCa4-101" value="" style="endArrow=none;html=1;rounded=0;shadow=0;strokeWidth=4;" parent="1" edge="1">
          <mxGeometry width="50" height="50" relative="1" as="geometry">
            <mxPoint x="-1260" y="-1998" as="sourcePoint" />
            <mxPoint x="-1250" y="-2018" as="targetPoint" />
          </mxGeometry>
        </mxCell>
        <mxCell id="_pNcX6U958TQj2iGUCa4-102" value="" style="endArrow=none;html=1;rounded=0;shadow=0;strokeWidth=4;" parent="1" edge="1">
          <mxGeometry width="50" height="50" relative="1" as="geometry">
            <mxPoint x="-1280" y="-1998" as="sourcePoint" />
            <mxPoint x="-1290" y="-2018" as="targetPoint" />
          </mxGeometry>
        </mxCell>
        <mxCell id="_pNcX6U958TQj2iGUCa4-103" value="" style="endArrow=none;html=1;rounded=0;shadow=0;strokeWidth=4;exitX=0.5;exitY=0;exitDx=0;exitDy=0;fillColor=#60a917;strokeColor=#2D7600;" parent="1" source="_pNcX6U958TQj2iGUCa4-148" edge="1">
          <mxGeometry width="50" height="50" relative="1" as="geometry">
            <mxPoint x="-1270" y="-1978" as="sourcePoint" />
            <mxPoint x="-1270" y="-1998" as="targetPoint" />
          </mxGeometry>
        </mxCell>
        <mxCell id="_pNcX6U958TQj2iGUCa4-111" value="" style="endArrow=none;html=1;rounded=0;shadow=0;strokeWidth=4;fillColor=#0050ef;strokeColor=#001DBC;" parent="1" edge="1">
          <mxGeometry width="50" height="50" relative="1" as="geometry">
            <mxPoint x="-1380" y="-2230" as="sourcePoint" />
            <mxPoint x="-1340" y="-2017" as="targetPoint" />
            <Array as="points">
              <mxPoint x="-1380" y="-2067" />
              <mxPoint x="-1340" y="-2067" />
            </Array>
          </mxGeometry>
        </mxCell>
        <mxCell id="_pNcX6U958TQj2iGUCa4-113" value="" style="endArrow=none;html=1;rounded=0;shadow=0;strokeWidth=4;fillColor=#60a917;strokeColor=#2D7600;" parent="1" edge="1">
          <mxGeometry width="50" height="50" relative="1" as="geometry">
            <mxPoint x="-1280" y="-2017" as="sourcePoint" />
            <mxPoint x="-1360" y="-2230" as="targetPoint" />
            <Array as="points">
              <mxPoint x="-1280" y="-2085" />
              <mxPoint x="-1360" y="-2085" />
            </Array>
          </mxGeometry>
        </mxCell>
        <mxCell id="_pNcX6U958TQj2iGUCa4-116" value="" style="endArrow=none;html=1;rounded=0;shadow=0;strokeWidth=4;" parent="1" edge="1">
          <mxGeometry width="50" height="50" relative="1" as="geometry">
            <mxPoint x="-1280" y="-2197" as="sourcePoint" />
            <mxPoint x="-1240" y="-2197" as="targetPoint" />
          </mxGeometry>
        </mxCell>
        <mxCell id="_pNcX6U958TQj2iGUCa4-117" value="" style="endArrow=none;html=1;rounded=0;shadow=0;strokeWidth=4;" parent="1" edge="1">
          <mxGeometry width="50" height="50" relative="1" as="geometry">
            <mxPoint x="-1270" y="-2177" as="sourcePoint" />
            <mxPoint x="-1250" y="-2177" as="targetPoint" />
          </mxGeometry>
        </mxCell>
        <mxCell id="_pNcX6U958TQj2iGUCa4-118" value="" style="endArrow=none;html=1;rounded=0;shadow=0;strokeWidth=4;" parent="1" edge="1">
          <mxGeometry width="50" height="50" relative="1" as="geometry">
            <mxPoint x="-1250" y="-2177" as="sourcePoint" />
            <mxPoint x="-1240" y="-2197" as="targetPoint" />
          </mxGeometry>
        </mxCell>
        <mxCell id="_pNcX6U958TQj2iGUCa4-119" value="" style="endArrow=none;html=1;rounded=0;shadow=0;strokeWidth=4;" parent="1" edge="1">
          <mxGeometry width="50" height="50" relative="1" as="geometry">
            <mxPoint x="-1270" y="-2177" as="sourcePoint" />
            <mxPoint x="-1280" y="-2197" as="targetPoint" />
          </mxGeometry>
        </mxCell>
        <mxCell id="_pNcX6U958TQj2iGUCa4-120" value="" style="endArrow=none;html=1;rounded=0;shadow=0;strokeWidth=4;" parent="1" edge="1">
          <mxGeometry width="50" height="50" relative="1" as="geometry">
            <mxPoint x="-1260" y="-2157" as="sourcePoint" />
            <mxPoint x="-1260" y="-2177" as="targetPoint" />
          </mxGeometry>
        </mxCell>
        <mxCell id="_pNcX6U958TQj2iGUCa4-121" value="" style="endArrow=none;html=1;rounded=0;shadow=0;strokeWidth=4;" parent="1" edge="1">
          <mxGeometry width="50" height="50" relative="1" as="geometry">
            <mxPoint x="-1270" y="-2197" as="sourcePoint" />
            <mxPoint x="-1270" y="-2285" as="targetPoint" />
          </mxGeometry>
        </mxCell>
        <mxCell id="_pNcX6U958TQj2iGUCa4-123" value="" style="endArrow=none;html=1;rounded=0;shadow=0;strokeWidth=4;" parent="1" edge="1">
          <mxGeometry width="50" height="50" relative="1" as="geometry">
            <mxPoint x="-1330" y="-2197" as="sourcePoint" />
            <mxPoint x="-1290" y="-2197" as="targetPoint" />
          </mxGeometry>
        </mxCell>
        <mxCell id="_pNcX6U958TQj2iGUCa4-124" value="" style="endArrow=none;html=1;rounded=0;shadow=0;strokeWidth=4;" parent="1" edge="1">
          <mxGeometry width="50" height="50" relative="1" as="geometry">
            <mxPoint x="-1320" y="-2177" as="sourcePoint" />
            <mxPoint x="-1300" y="-2177" as="targetPoint" />
          </mxGeometry>
        </mxCell>
        <mxCell id="_pNcX6U958TQj2iGUCa4-125" value="" style="endArrow=none;html=1;rounded=0;shadow=0;strokeWidth=4;" parent="1" edge="1">
          <mxGeometry width="50" height="50" relative="1" as="geometry">
            <mxPoint x="-1300" y="-2177" as="sourcePoint" />
            <mxPoint x="-1290" y="-2197" as="targetPoint" />
          </mxGeometry>
        </mxCell>
        <mxCell id="_pNcX6U958TQj2iGUCa4-126" value="" style="endArrow=none;html=1;rounded=0;shadow=0;strokeWidth=4;" parent="1" edge="1">
          <mxGeometry width="50" height="50" relative="1" as="geometry">
            <mxPoint x="-1320" y="-2177" as="sourcePoint" />
            <mxPoint x="-1330" y="-2197" as="targetPoint" />
          </mxGeometry>
        </mxCell>
        <mxCell id="_pNcX6U958TQj2iGUCa4-127" value="" style="endArrow=none;html=1;rounded=0;shadow=0;strokeWidth=4;" parent="1" edge="1">
          <mxGeometry width="50" height="50" relative="1" as="geometry">
            <mxPoint x="-1310" y="-2157" as="sourcePoint" />
            <mxPoint x="-1310" y="-2177" as="targetPoint" />
          </mxGeometry>
        </mxCell>
        <mxCell id="_pNcX6U958TQj2iGUCa4-128" value="" style="endArrow=none;html=1;rounded=0;shadow=0;strokeWidth=4;" parent="1" edge="1">
          <mxGeometry width="50" height="50" relative="1" as="geometry">
            <mxPoint x="-1320" y="-2197" as="sourcePoint" />
            <mxPoint x="-1300" y="-1667" as="targetPoint" />
            <Array as="points">
              <mxPoint x="-1320" y="-2285" />
              <mxPoint x="-1145" y="-2285" />
              <mxPoint x="-1140" y="-1666" />
            </Array>
          </mxGeometry>
        </mxCell>
        <mxCell id="_pNcX6U958TQj2iGUCa4-130" value="" style="endArrow=none;html=1;rounded=0;shadow=0;strokeWidth=4;" parent="1" edge="1">
          <mxGeometry width="50" height="50" relative="1" as="geometry">
            <mxPoint x="-1230" y="-2197" as="sourcePoint" />
            <mxPoint x="-1190" y="-2197" as="targetPoint" />
          </mxGeometry>
        </mxCell>
        <mxCell id="_pNcX6U958TQj2iGUCa4-131" value="" style="endArrow=none;html=1;rounded=0;shadow=0;strokeWidth=4;" parent="1" edge="1">
          <mxGeometry width="50" height="50" relative="1" as="geometry">
            <mxPoint x="-1220" y="-2177" as="sourcePoint" />
            <mxPoint x="-1200" y="-2177" as="targetPoint" />
          </mxGeometry>
        </mxCell>
        <mxCell id="_pNcX6U958TQj2iGUCa4-132" value="" style="endArrow=none;html=1;rounded=0;shadow=0;strokeWidth=4;" parent="1" edge="1">
          <mxGeometry width="50" height="50" relative="1" as="geometry">
            <mxPoint x="-1200" y="-2177" as="sourcePoint" />
            <mxPoint x="-1190" y="-2197" as="targetPoint" />
          </mxGeometry>
        </mxCell>
        <mxCell id="_pNcX6U958TQj2iGUCa4-133" value="" style="endArrow=none;html=1;rounded=0;shadow=0;strokeWidth=4;" parent="1" edge="1">
          <mxGeometry width="50" height="50" relative="1" as="geometry">
            <mxPoint x="-1220" y="-2177" as="sourcePoint" />
            <mxPoint x="-1230" y="-2197" as="targetPoint" />
          </mxGeometry>
        </mxCell>
        <mxCell id="_pNcX6U958TQj2iGUCa4-134" value="" style="endArrow=none;html=1;rounded=0;shadow=0;strokeWidth=4;" parent="1" edge="1">
          <mxGeometry width="50" height="50" relative="1" as="geometry">
            <mxPoint x="-1210" y="-2157" as="sourcePoint" />
            <mxPoint x="-1210" y="-2177" as="targetPoint" />
          </mxGeometry>
        </mxCell>
        <mxCell id="_pNcX6U958TQj2iGUCa4-135" value="" style="endArrow=none;html=1;rounded=0;shadow=0;strokeWidth=4;" parent="1" edge="1">
          <mxGeometry width="50" height="50" relative="1" as="geometry">
            <mxPoint x="-1220" y="-2197" as="sourcePoint" />
            <mxPoint x="-1220" y="-2285" as="targetPoint" />
          </mxGeometry>
        </mxCell>
        <mxCell id="_pNcX6U958TQj2iGUCa4-141" value="" style="endArrow=none;html=1;rounded=0;shadow=0;strokeWidth=4;" parent="1" edge="1">
          <mxGeometry width="50" height="50" relative="1" as="geometry">
            <mxPoint x="-1320" y="-2017" as="sourcePoint" />
            <mxPoint x="-1260" y="-2157" as="targetPoint" />
            <Array as="points">
              <mxPoint x="-1320" y="-2047" />
              <mxPoint x="-1260" y="-2047" />
            </Array>
          </mxGeometry>
        </mxCell>
        <mxCell id="_pNcX6U958TQj2iGUCa4-145" value="" style="rounded=0;whiteSpace=wrap;html=1;strokeWidth=4;" parent="1" vertex="1">
          <mxGeometry x="-1410" y="-1947" width="40" height="20" as="geometry" />
        </mxCell>
        <mxCell id="_pNcX6U958TQj2iGUCa4-147" value="" style="rounded=0;whiteSpace=wrap;html=1;strokeWidth=4;" parent="1" vertex="1">
          <mxGeometry x="-1350" y="-1947" width="40" height="20" as="geometry" />
        </mxCell>
        <mxCell id="_pNcX6U958TQj2iGUCa4-148" value="" style="rounded=0;whiteSpace=wrap;html=1;strokeWidth=4;" parent="1" vertex="1">
          <mxGeometry x="-1290" y="-1947" width="40" height="20" as="geometry" />
        </mxCell>
        <mxCell id="_pNcX6U958TQj2iGUCa4-162" value="" style="endArrow=none;html=1;rounded=0;shadow=0;strokeWidth=4;exitX=0.5;exitY=1;exitDx=0;exitDy=0;fillColor=#60a917;strokeColor=#2D7600;" parent="1" source="_pNcX6U958TQj2iGUCa4-148" edge="1">
          <mxGeometry width="50" height="50" relative="1" as="geometry">
            <mxPoint x="-1270" y="-1917" as="sourcePoint" />
            <mxPoint x="-1200" y="-2197" as="targetPoint" />
            <Array as="points">
              <mxPoint x="-1270" y="-1917" />
              <mxPoint x="-1180" y="-1917" />
              <mxPoint x="-1180" y="-2217" />
              <mxPoint x="-1200" y="-2217" />
            </Array>
          </mxGeometry>
        </mxCell>
        <mxCell id="_pNcX6U958TQj2iGUCa4-163" value="" style="endArrow=none;html=1;rounded=0;shadow=0;strokeWidth=4;exitX=0.5;exitY=1;exitDx=0;exitDy=0;fillColor=#0050ef;strokeColor=#001DBC;" parent="1" source="_pNcX6U958TQj2iGUCa4-147" edge="1">
          <mxGeometry width="50" height="50" relative="1" as="geometry">
            <mxPoint x="-1260" y="-1917" as="sourcePoint" />
            <mxPoint x="-1250" y="-2197" as="targetPoint" />
            <Array as="points">
              <mxPoint x="-1330" y="-1907" />
              <mxPoint x="-1170" y="-1907" />
              <mxPoint x="-1170" y="-2240" />
              <mxPoint x="-1250" y="-2240" />
            </Array>
          </mxGeometry>
        </mxCell>
        <mxCell id="_pNcX6U958TQj2iGUCa4-164" value="" style="endArrow=none;html=1;rounded=0;shadow=0;strokeWidth=4;exitX=0.5;exitY=1;exitDx=0;exitDy=0;fillColor=#fff2cc;strokeColor=#d6b656;" parent="1" source="_pNcX6U958TQj2iGUCa4-145" edge="1">
          <mxGeometry width="50" height="50" relative="1" as="geometry">
            <mxPoint x="-1250" y="-1907" as="sourcePoint" />
            <mxPoint x="-1300" y="-2197" as="targetPoint" />
            <Array as="points">
              <mxPoint x="-1390" y="-1897" />
              <mxPoint x="-1160" y="-1897" />
              <mxPoint x="-1160" y="-2265" />
              <mxPoint x="-1300" y="-2265" />
            </Array>
          </mxGeometry>
        </mxCell>
        <mxCell id="_pNcX6U958TQj2iGUCa4-165" value="" style="endArrow=none;html=1;rounded=0;shadow=0;strokeWidth=4;" parent="1" edge="1">
          <mxGeometry width="50" height="50" relative="1" as="geometry">
            <mxPoint x="-1260" y="-2017" as="sourcePoint" />
            <mxPoint x="-1210" y="-2157" as="targetPoint" />
            <Array as="points">
              <mxPoint x="-1260" y="-2037" />
              <mxPoint x="-1210" y="-2037" />
            </Array>
          </mxGeometry>
        </mxCell>
        <mxCell id="_pNcX6U958TQj2iGUCa4-166" value="" style="endArrow=none;html=1;rounded=0;shadow=0;strokeWidth=4;" parent="1" edge="1">
          <mxGeometry width="50" height="50" relative="1" as="geometry">
            <mxPoint x="-1380" y="-2017" as="sourcePoint" />
            <mxPoint x="-1310" y="-2157" as="targetPoint" />
            <Array as="points">
              <mxPoint x="-1380" y="-2057" />
              <mxPoint x="-1310" y="-2057" />
            </Array>
          </mxGeometry>
        </mxCell>
        <mxCell id="_pNcX6U958TQj2iGUCa4-167" value="" style="endArrow=none;html=1;rounded=0;shadow=0;strokeWidth=4;fillColor=#ffe6cc;strokeColor=#d79b00;" parent="1" edge="1">
          <mxGeometry width="50" height="50" relative="1" as="geometry">
            <mxPoint x="-1310" y="-1847" as="sourcePoint" />
            <mxPoint x="-1390" y="-1965" as="targetPoint" />
            <Array as="points">
              <mxPoint x="-1310" y="-1887" />
              <mxPoint x="-1360" y="-1887" />
              <mxPoint x="-1360" y="-1965" />
            </Array>
          </mxGeometry>
        </mxCell>
        <mxCell id="_pNcX6U958TQj2iGUCa4-168" value="" style="endArrow=none;html=1;rounded=0;shadow=0;strokeWidth=4;fillColor=#0050ef;strokeColor=#001DBC;" parent="1" edge="1">
          <mxGeometry width="50" height="50" relative="1" as="geometry">
            <mxPoint x="-1290" y="-1847" as="sourcePoint" />
            <mxPoint x="-1330" y="-1967" as="targetPoint" />
            <Array as="points">
              <mxPoint x="-1290" y="-1887" />
              <mxPoint x="-1300" y="-1887" />
              <mxPoint x="-1300" y="-1967" />
            </Array>
          </mxGeometry>
        </mxCell>
        <mxCell id="_pNcX6U958TQj2iGUCa4-169" value="" style="endArrow=none;html=1;rounded=0;shadow=0;strokeWidth=4;fillColor=#60a917;strokeColor=#2D7600;" parent="1" edge="1">
          <mxGeometry width="50" height="50" relative="1" as="geometry">
            <mxPoint x="-1270" y="-1847" as="sourcePoint" />
            <mxPoint x="-1270" y="-1977" as="targetPoint" />
            <Array as="points">
              <mxPoint x="-1270" y="-1887" />
              <mxPoint x="-1240" y="-1887" />
              <mxPoint x="-1240" y="-1977" />
            </Array>
          </mxGeometry>
        </mxCell>
        <mxCell id="_pNcX6U958TQj2iGUCa4-170" value="" style="endArrow=none;html=1;rounded=0;shadow=0;strokeWidth=4;" parent="1" edge="1">
          <mxGeometry width="50" height="50" relative="1" as="geometry">
            <mxPoint x="-1340" y="-1846" as="sourcePoint" />
            <mxPoint x="-1260" y="-1846" as="targetPoint" />
          </mxGeometry>
        </mxCell>
        <mxCell id="_pNcX6U958TQj2iGUCa4-171" value="" style="endArrow=none;html=1;rounded=0;shadow=0;strokeWidth=4;" parent="1" edge="1">
          <mxGeometry width="50" height="50" relative="1" as="geometry">
            <mxPoint x="-1320" y="-1826" as="sourcePoint" />
            <mxPoint x="-1280" y="-1826" as="targetPoint" />
            <Array as="points">
              <mxPoint x="-1300" y="-1826" />
            </Array>
          </mxGeometry>
        </mxCell>
        <mxCell id="_pNcX6U958TQj2iGUCa4-172" value="" style="endArrow=none;html=1;rounded=0;shadow=0;strokeWidth=4;" parent="1" edge="1">
          <mxGeometry width="50" height="50" relative="1" as="geometry">
            <mxPoint x="-1280" y="-1826" as="sourcePoint" />
            <mxPoint x="-1260" y="-1846" as="targetPoint" />
          </mxGeometry>
        </mxCell>
        <mxCell id="_pNcX6U958TQj2iGUCa4-173" value="" style="endArrow=none;html=1;rounded=0;shadow=0;strokeWidth=4;" parent="1" edge="1">
          <mxGeometry width="50" height="50" relative="1" as="geometry">
            <mxPoint x="-1320" y="-1826" as="sourcePoint" />
            <mxPoint x="-1340" y="-1846" as="targetPoint" />
          </mxGeometry>
        </mxCell>
        <mxCell id="_pNcX6U958TQj2iGUCa4-174" value="" style="endArrow=none;html=1;rounded=0;shadow=0;strokeWidth=4;" parent="1" edge="1">
          <mxGeometry width="50" height="50" relative="1" as="geometry">
            <mxPoint x="-1330" y="-1847" as="sourcePoint" />
            <mxPoint x="-1800" y="-1877" as="targetPoint" />
            <Array as="points">
              <mxPoint x="-1330" y="-1877" />
            </Array>
          </mxGeometry>
        </mxCell>
        <mxCell id="_pNcX6U958TQj2iGUCa4-175" value="" style="endArrow=none;html=1;rounded=0;shadow=0;strokeWidth=4;" parent="1" edge="1">
          <mxGeometry width="50" height="50" relative="1" as="geometry">
            <mxPoint x="-1300" y="-1806" as="sourcePoint" />
            <mxPoint x="-1300" y="-1826" as="targetPoint" />
          </mxGeometry>
        </mxCell>
        <mxCell id="_pNcX6U958TQj2iGUCa4-176" value="" style="endArrow=none;html=1;rounded=0;shadow=0;strokeWidth=4;" parent="1" edge="1">
          <mxGeometry width="50" height="50" relative="1" as="geometry">
            <mxPoint x="-1330" y="-1766" as="sourcePoint" />
            <mxPoint x="-1270" y="-1766" as="targetPoint" />
            <Array as="points">
              <mxPoint x="-1330" y="-1806" />
              <mxPoint x="-1270" y="-1806" />
            </Array>
          </mxGeometry>
        </mxCell>
        <mxCell id="_pNcX6U958TQj2iGUCa4-183" value="" style="rounded=0;whiteSpace=wrap;html=1;strokeWidth=4;" parent="1" vertex="1">
          <mxGeometry x="-1340" y="-1766" width="30" height="30" as="geometry" />
        </mxCell>
        <mxCell id="_pNcX6U958TQj2iGUCa4-184" value="" style="rounded=0;whiteSpace=wrap;html=1;strokeWidth=4;" parent="1" vertex="1">
          <mxGeometry x="-1280" y="-1766" width="30" height="30" as="geometry" />
        </mxCell>
        <mxCell id="_pNcX6U958TQj2iGUCa4-185" value="" style="endArrow=none;html=1;rounded=0;shadow=0;strokeWidth=4;strokeColor=#999999;" parent="1" edge="1">
          <mxGeometry width="50" height="50" relative="1" as="geometry">
            <mxPoint x="-1320" y="-1766" as="sourcePoint" />
            <mxPoint x="-900" y="-1776" as="targetPoint" />
            <Array as="points">
              <mxPoint x="-1320" y="-1776" />
            </Array>
          </mxGeometry>
        </mxCell>
        <mxCell id="_pNcX6U958TQj2iGUCa4-188" value="" style="endArrow=none;html=1;rounded=0;shadow=0;strokeWidth=4;exitX=0.75;exitY=0;exitDx=0;exitDy=0;strokeColor=#999999;" parent="1" source="_pNcX6U958TQj2iGUCa4-184" edge="1">
          <mxGeometry width="50" height="50" relative="1" as="geometry">
            <mxPoint x="-1320" y="-1786" as="sourcePoint" />
            <mxPoint x="-1257" y="-1776" as="targetPoint" />
          </mxGeometry>
        </mxCell>
        <mxCell id="_pNcX6U958TQj2iGUCa4-189" value="" style="endArrow=none;html=1;rounded=0;shadow=0;strokeWidth=4;fillColor=#ffe6cc;strokeColor=#d79b00;" parent="1" edge="1">
          <mxGeometry width="50" height="50" relative="1" as="geometry">
            <mxPoint x="-1400" y="-2017" as="sourcePoint" />
            <mxPoint x="-1400" y="-2230" as="targetPoint" />
          </mxGeometry>
        </mxCell>
        <mxCell id="_pNcX6U958TQj2iGUCa4-190" value="" style="endArrow=none;html=1;rounded=0;shadow=0;strokeWidth=4;entryX=0.5;entryY=1;entryDx=0;entryDy=0;" parent="1" target="_pNcX6U958TQj2iGUCa4-183" edge="1">
          <mxGeometry width="50" height="50" relative="1" as="geometry">
            <mxPoint x="-1300" y="-1696" as="sourcePoint" />
            <mxPoint x="-1250" y="-1796" as="targetPoint" />
            <Array as="points">
              <mxPoint x="-1300" y="-1716" />
              <mxPoint x="-1325" y="-1716" />
            </Array>
          </mxGeometry>
        </mxCell>
        <mxCell id="_pNcX6U958TQj2iGUCa4-191" value="" style="endArrow=none;html=1;rounded=0;shadow=0;strokeWidth=4;entryX=0.5;entryY=1;entryDx=0;entryDy=0;" parent="1" target="_pNcX6U958TQj2iGUCa4-184" edge="1">
          <mxGeometry width="50" height="50" relative="1" as="geometry">
            <mxPoint x="-1290" y="-1696" as="sourcePoint" />
            <mxPoint x="-1250" y="-1796" as="targetPoint" />
            <Array as="points">
              <mxPoint x="-1290" y="-1716" />
              <mxPoint x="-1265" y="-1716" />
            </Array>
          </mxGeometry>
        </mxCell>
        <mxCell id="_pNcX6U958TQj2iGUCa4-193" value="" style="endArrow=none;html=1;rounded=0;shadow=0;strokeWidth=4;" parent="1" edge="1">
          <mxGeometry width="50" height="50" relative="1" as="geometry">
            <mxPoint x="-1315" y="-1696" as="sourcePoint" />
            <mxPoint x="-1275" y="-1696" as="targetPoint" />
          </mxGeometry>
        </mxCell>
        <mxCell id="_pNcX6U958TQj2iGUCa4-194" value="" style="endArrow=none;html=1;rounded=0;shadow=0;strokeWidth=4;" parent="1" edge="1">
          <mxGeometry width="50" height="50" relative="1" as="geometry">
            <mxPoint x="-1305" y="-1676" as="sourcePoint" />
            <mxPoint x="-1285" y="-1676" as="targetPoint" />
          </mxGeometry>
        </mxCell>
        <mxCell id="_pNcX6U958TQj2iGUCa4-195" value="" style="endArrow=none;html=1;rounded=0;shadow=0;strokeWidth=4;" parent="1" edge="1">
          <mxGeometry width="50" height="50" relative="1" as="geometry">
            <mxPoint x="-1285" y="-1676" as="sourcePoint" />
            <mxPoint x="-1275" y="-1696" as="targetPoint" />
          </mxGeometry>
        </mxCell>
        <mxCell id="_pNcX6U958TQj2iGUCa4-196" value="" style="endArrow=none;html=1;rounded=0;shadow=0;strokeWidth=4;" parent="1" edge="1">
          <mxGeometry width="50" height="50" relative="1" as="geometry">
            <mxPoint x="-1305" y="-1676" as="sourcePoint" />
            <mxPoint x="-1315" y="-1696" as="targetPoint" />
          </mxGeometry>
        </mxCell>
        <mxCell id="_pNcX6U958TQj2iGUCa4-197" value="" style="endArrow=none;html=1;rounded=0;shadow=0;strokeWidth=4;strokeColor=#BDFFB3;" parent="1" edge="1">
          <mxGeometry width="50" height="50" relative="1" as="geometry">
            <mxPoint x="-1790" y="-1686" as="sourcePoint" />
            <mxPoint x="-1310" y="-1686" as="targetPoint" />
          </mxGeometry>
        </mxCell>
        <mxCell id="_pNcX6U958TQj2iGUCa4-198" value="" style="endArrow=none;html=1;rounded=0;shadow=0;strokeWidth=4;" parent="1" edge="1">
          <mxGeometry width="50" height="50" relative="1" as="geometry">
            <mxPoint x="-1295" y="-1656" as="sourcePoint" />
            <mxPoint x="-1295" y="-1676" as="targetPoint" />
          </mxGeometry>
        </mxCell>
        <mxCell id="_pNcX6U958TQj2iGUCa4-199" value="" style="endArrow=none;html=1;rounded=0;shadow=0;strokeWidth=4;" parent="1" edge="1">
          <mxGeometry width="50" height="50" relative="1" as="geometry">
            <mxPoint x="-1315" y="-1656" as="sourcePoint" />
            <mxPoint x="-1275" y="-1656" as="targetPoint" />
          </mxGeometry>
        </mxCell>
        <mxCell id="_pNcX6U958TQj2iGUCa4-200" value="" style="endArrow=none;html=1;rounded=0;shadow=0;strokeWidth=4;" parent="1" edge="1">
          <mxGeometry width="50" height="50" relative="1" as="geometry">
            <mxPoint x="-1335" y="-1636" as="sourcePoint" />
            <mxPoint x="-1255" y="-1636" as="targetPoint" />
          </mxGeometry>
        </mxCell>
        <mxCell id="_pNcX6U958TQj2iGUCa4-201" value="" style="endArrow=none;html=1;rounded=0;shadow=0;strokeWidth=4;" parent="1" edge="1">
          <mxGeometry width="50" height="50" relative="1" as="geometry">
            <mxPoint x="-1335" y="-1636" as="sourcePoint" />
            <mxPoint x="-1315" y="-1656" as="targetPoint" />
          </mxGeometry>
        </mxCell>
        <mxCell id="_pNcX6U958TQj2iGUCa4-202" value="" style="endArrow=none;html=1;rounded=0;shadow=0;strokeWidth=4;" parent="1" edge="1">
          <mxGeometry width="50" height="50" relative="1" as="geometry">
            <mxPoint x="-1255" y="-1636" as="sourcePoint" />
            <mxPoint x="-1275" y="-1656" as="targetPoint" />
          </mxGeometry>
        </mxCell>
        <mxCell id="_pNcX6U958TQj2iGUCa4-203" value="" style="endArrow=none;html=1;rounded=0;shadow=0;strokeWidth=4;" parent="1" edge="1">
          <mxGeometry width="50" height="50" relative="1" as="geometry">
            <mxPoint x="-1720" y="-1626" as="sourcePoint" />
            <mxPoint x="-1330" y="-1636" as="targetPoint" />
            <Array as="points">
              <mxPoint x="-1330" y="-1626" />
            </Array>
          </mxGeometry>
        </mxCell>
        <mxCell id="_pNcX6U958TQj2iGUCa4-204" value="" style="endArrow=none;html=1;rounded=0;shadow=0;strokeWidth=4;" parent="1" edge="1">
          <mxGeometry width="50" height="50" relative="1" as="geometry">
            <mxPoint x="-1310" y="-1586" as="sourcePoint" />
            <mxPoint x="-1310" y="-1636" as="targetPoint" />
          </mxGeometry>
        </mxCell>
        <mxCell id="_pNcX6U958TQj2iGUCa4-206" value="" style="endArrow=none;html=1;rounded=0;shadow=0;strokeWidth=4;" parent="1" edge="1">
          <mxGeometry width="50" height="50" relative="1" as="geometry">
            <mxPoint x="-1250" y="-1586" as="sourcePoint" />
            <mxPoint x="-1280" y="-1636" as="targetPoint" />
            <Array as="points">
              <mxPoint x="-1250" y="-1596" />
              <mxPoint x="-1280" y="-1596" />
            </Array>
          </mxGeometry>
        </mxCell>
        <mxCell id="_pNcX6U958TQj2iGUCa4-207" value="" style="endArrow=none;html=1;rounded=0;shadow=0;strokeWidth=4;" parent="1" edge="1">
          <mxGeometry width="50" height="50" relative="1" as="geometry">
            <mxPoint x="-1190" y="-1586" as="sourcePoint" />
            <mxPoint x="-1260" y="-1636" as="targetPoint" />
            <Array as="points">
              <mxPoint x="-1190" y="-1606" />
              <mxPoint x="-1260" y="-1606" />
            </Array>
          </mxGeometry>
        </mxCell>
        <mxCell id="_pNcX6U958TQj2iGUCa4-208" value="" style="endArrow=none;html=1;rounded=0;shadow=0;strokeWidth=4;" parent="1" edge="1">
          <mxGeometry width="50" height="50" relative="1" as="geometry">
            <mxPoint x="-1320" y="-1586" as="sourcePoint" />
            <mxPoint x="-1280" y="-1586" as="targetPoint" />
          </mxGeometry>
        </mxCell>
        <mxCell id="_pNcX6U958TQj2iGUCa4-209" value="" style="endArrow=none;html=1;rounded=0;shadow=0;strokeWidth=4;" parent="1" edge="1">
          <mxGeometry width="50" height="50" relative="1" as="geometry">
            <mxPoint x="-1310" y="-1566" as="sourcePoint" />
            <mxPoint x="-1290" y="-1566" as="targetPoint" />
          </mxGeometry>
        </mxCell>
        <mxCell id="_pNcX6U958TQj2iGUCa4-210" value="" style="endArrow=none;html=1;rounded=0;shadow=0;strokeWidth=4;" parent="1" edge="1">
          <mxGeometry width="50" height="50" relative="1" as="geometry">
            <mxPoint x="-1290" y="-1566" as="sourcePoint" />
            <mxPoint x="-1280" y="-1586" as="targetPoint" />
          </mxGeometry>
        </mxCell>
        <mxCell id="_pNcX6U958TQj2iGUCa4-211" value="" style="endArrow=none;html=1;rounded=0;shadow=0;strokeWidth=4;" parent="1" edge="1">
          <mxGeometry width="50" height="50" relative="1" as="geometry">
            <mxPoint x="-1310" y="-1566" as="sourcePoint" />
            <mxPoint x="-1320" y="-1586" as="targetPoint" />
          </mxGeometry>
        </mxCell>
        <mxCell id="_pNcX6U958TQj2iGUCa4-212" value="" style="endArrow=none;html=1;rounded=0;shadow=0;strokeWidth=4;" parent="1" edge="1">
          <mxGeometry width="50" height="50" relative="1" as="geometry">
            <mxPoint x="-1260" y="-1586" as="sourcePoint" />
            <mxPoint x="-1220" y="-1586" as="targetPoint" />
          </mxGeometry>
        </mxCell>
        <mxCell id="_pNcX6U958TQj2iGUCa4-213" value="" style="endArrow=none;html=1;rounded=0;shadow=0;strokeWidth=4;" parent="1" edge="1">
          <mxGeometry width="50" height="50" relative="1" as="geometry">
            <mxPoint x="-1250" y="-1566" as="sourcePoint" />
            <mxPoint x="-1230" y="-1566" as="targetPoint" />
          </mxGeometry>
        </mxCell>
        <mxCell id="_pNcX6U958TQj2iGUCa4-214" value="" style="endArrow=none;html=1;rounded=0;shadow=0;strokeWidth=4;" parent="1" edge="1">
          <mxGeometry width="50" height="50" relative="1" as="geometry">
            <mxPoint x="-1230" y="-1566" as="sourcePoint" />
            <mxPoint x="-1220" y="-1586" as="targetPoint" />
          </mxGeometry>
        </mxCell>
        <mxCell id="_pNcX6U958TQj2iGUCa4-215" value="" style="endArrow=none;html=1;rounded=0;shadow=0;strokeWidth=4;" parent="1" edge="1">
          <mxGeometry width="50" height="50" relative="1" as="geometry">
            <mxPoint x="-1250" y="-1566" as="sourcePoint" />
            <mxPoint x="-1260" y="-1586" as="targetPoint" />
          </mxGeometry>
        </mxCell>
        <mxCell id="_pNcX6U958TQj2iGUCa4-216" value="" style="endArrow=none;html=1;rounded=0;shadow=0;strokeWidth=4;" parent="1" edge="1">
          <mxGeometry width="50" height="50" relative="1" as="geometry">
            <mxPoint x="-1200" y="-1586" as="sourcePoint" />
            <mxPoint x="-1160" y="-1586" as="targetPoint" />
          </mxGeometry>
        </mxCell>
        <mxCell id="_pNcX6U958TQj2iGUCa4-217" value="" style="endArrow=none;html=1;rounded=0;shadow=0;strokeWidth=4;" parent="1" edge="1">
          <mxGeometry width="50" height="50" relative="1" as="geometry">
            <mxPoint x="-1190" y="-1566" as="sourcePoint" />
            <mxPoint x="-1170" y="-1566" as="targetPoint" />
          </mxGeometry>
        </mxCell>
        <mxCell id="_pNcX6U958TQj2iGUCa4-218" value="" style="endArrow=none;html=1;rounded=0;shadow=0;strokeWidth=4;" parent="1" edge="1">
          <mxGeometry width="50" height="50" relative="1" as="geometry">
            <mxPoint x="-1170" y="-1566" as="sourcePoint" />
            <mxPoint x="-1160" y="-1586" as="targetPoint" />
          </mxGeometry>
        </mxCell>
        <mxCell id="_pNcX6U958TQj2iGUCa4-219" value="" style="endArrow=none;html=1;rounded=0;shadow=0;strokeWidth=4;" parent="1" edge="1">
          <mxGeometry width="50" height="50" relative="1" as="geometry">
            <mxPoint x="-1190" y="-1566" as="sourcePoint" />
            <mxPoint x="-1200" y="-1586" as="targetPoint" />
          </mxGeometry>
        </mxCell>
        <mxCell id="_pNcX6U958TQj2iGUCa4-220" value="" style="endArrow=none;html=1;rounded=0;shadow=0;strokeWidth=4;fillColor=#ffe6cc;strokeColor=#d79b00;" parent="1" edge="1">
          <mxGeometry width="50" height="50" relative="1" as="geometry">
            <mxPoint x="-1290" y="-1587" as="sourcePoint" />
            <mxPoint x="-1230" y="-1895" as="targetPoint" />
            <Array as="points">
              <mxPoint x="-1290" y="-1627" />
              <mxPoint x="-1260" y="-1627" />
              <mxPoint x="-1230" y="-1627" />
            </Array>
          </mxGeometry>
        </mxCell>
        <mxCell id="_pNcX6U958TQj2iGUCa4-221" value="" style="endArrow=none;html=1;rounded=0;shadow=0;strokeWidth=4;fillColor=#0050ef;strokeColor=#001DBC;" parent="1" edge="1">
          <mxGeometry width="50" height="50" relative="1" as="geometry">
            <mxPoint x="-1230" y="-1587" as="sourcePoint" />
            <mxPoint x="-1220" y="-1900" as="targetPoint" />
            <Array as="points">
              <mxPoint x="-1230" y="-1617" />
              <mxPoint x="-1220" y="-1617" />
              <mxPoint x="-1220" y="-1905" />
            </Array>
          </mxGeometry>
        </mxCell>
        <mxCell id="_pNcX6U958TQj2iGUCa4-222" value="" style="endArrow=none;html=1;rounded=0;shadow=0;strokeWidth=4;fillColor=#60a917;strokeColor=#2D7600;" parent="1" edge="1">
          <mxGeometry width="50" height="50" relative="1" as="geometry">
            <mxPoint x="-1170" y="-1587" as="sourcePoint" />
            <mxPoint x="-1210" y="-1910" as="targetPoint" />
            <Array as="points">
              <mxPoint x="-1170" y="-1617" />
              <mxPoint x="-1210" y="-1617" />
              <mxPoint x="-1210" y="-1915" />
            </Array>
          </mxGeometry>
        </mxCell>
        <mxCell id="_pNcX6U958TQj2iGUCa4-227" value="" style="whiteSpace=wrap;html=1;aspect=fixed;strokeWidth=4;" parent="1" vertex="1">
          <mxGeometry x="-1300" y="-1169" width="30" height="30" as="geometry" />
        </mxCell>
        <mxCell id="_pNcX6U958TQj2iGUCa4-228" value="" style="whiteSpace=wrap;html=1;aspect=fixed;strokeWidth=4;" parent="1" vertex="1">
          <mxGeometry x="-1240" y="-1169" width="30" height="30" as="geometry" />
        </mxCell>
        <mxCell id="_pNcX6U958TQj2iGUCa4-230" value="" style="whiteSpace=wrap;html=1;aspect=fixed;strokeWidth=4;" parent="1" vertex="1">
          <mxGeometry x="-1130" y="-1606" width="30" height="30" as="geometry" />
        </mxCell>
        <mxCell id="_pNcX6U958TQj2iGUCa4-231" value="" style="whiteSpace=wrap;html=1;aspect=fixed;strokeWidth=4;" parent="1" vertex="1">
          <mxGeometry x="-1070" y="-1606" width="30" height="30" as="geometry" />
        </mxCell>
        <mxCell id="_pNcX6U958TQj2iGUCa4-232" value="" style="whiteSpace=wrap;html=1;aspect=fixed;strokeWidth=4;" parent="1" vertex="1">
          <mxGeometry x="-1010" y="-1606" width="30" height="30" as="geometry" />
        </mxCell>
        <mxCell id="_pNcX6U958TQj2iGUCa4-233" value="" style="endArrow=classic;html=1;rounded=0;shadow=0;strokeWidth=4;exitX=0.5;exitY=1;exitDx=0;exitDy=0;" parent="1" source="_pNcX6U958TQj2iGUCa4-227" edge="1">
          <mxGeometry width="50" height="50" relative="1" as="geometry">
            <mxPoint x="-1130" y="-1449" as="sourcePoint" />
            <mxPoint x="-1285" y="-1047" as="targetPoint" />
          </mxGeometry>
        </mxCell>
        <mxCell id="_pNcX6U958TQj2iGUCa4-234" value="" style="endArrow=classic;html=1;rounded=0;shadow=0;strokeWidth=4;exitX=0.5;exitY=1;exitDx=0;exitDy=0;" parent="1" source="_pNcX6U958TQj2iGUCa4-228" edge="1">
          <mxGeometry width="50" height="50" relative="1" as="geometry">
            <mxPoint x="-1235.43" y="-1379" as="sourcePoint" />
            <mxPoint x="-1225" y="-1047" as="targetPoint" />
          </mxGeometry>
        </mxCell>
        <mxCell id="_pNcX6U958TQj2iGUCa4-235" value="" style="endArrow=classic;html=1;rounded=0;shadow=0;strokeWidth=4;startArrow=none;" parent="1" source="_pNcX6U958TQj2iGUCa4-229" edge="1">
          <mxGeometry width="50" height="50" relative="1" as="geometry">
            <mxPoint x="-1175" y="-1279" as="sourcePoint" />
            <mxPoint x="-1165" y="-1047" as="targetPoint" />
          </mxGeometry>
        </mxCell>
        <mxCell id="_pNcX6U958TQj2iGUCa4-236" value="" style="endArrow=none;html=1;rounded=0;shadow=0;strokeWidth=4;entryX=0.356;entryY=0.006;entryDx=0;entryDy=0;entryPerimeter=0;fillColor=#ffe6cc;strokeColor=#d79b00;" parent="1" target="_pNcX6U958TQj2iGUCa4-230" edge="1">
          <mxGeometry width="50" height="50" relative="1" as="geometry">
            <mxPoint x="-1230" y="-1626" as="sourcePoint" />
            <mxPoint x="-1122" y="-1506" as="targetPoint" />
            <Array as="points">
              <mxPoint x="-1150" y="-1626" />
              <mxPoint x="-1119" y="-1626" />
            </Array>
          </mxGeometry>
        </mxCell>
        <mxCell id="_pNcX6U958TQj2iGUCa4-237" value="" style="endArrow=none;html=1;rounded=0;shadow=0;strokeWidth=4;entryX=0.25;entryY=0;entryDx=0;entryDy=0;fillColor=#0050ef;strokeColor=#001DBC;" parent="1" target="_pNcX6U958TQj2iGUCa4-231" edge="1">
          <mxGeometry width="50" height="50" relative="1" as="geometry">
            <mxPoint x="-1220" y="-1636" as="sourcePoint" />
            <mxPoint x="-1110" y="-1506" as="targetPoint" />
            <Array as="points">
              <mxPoint x="-1062" y="-1636" />
            </Array>
          </mxGeometry>
        </mxCell>
        <mxCell id="_pNcX6U958TQj2iGUCa4-238" value="" style="endArrow=none;html=1;rounded=0;shadow=0;strokeWidth=4;entryX=0.25;entryY=0;entryDx=0;entryDy=0;fillColor=#60a917;strokeColor=#2D7600;" parent="1" target="_pNcX6U958TQj2iGUCa4-232" edge="1">
          <mxGeometry width="50" height="50" relative="1" as="geometry">
            <mxPoint x="-1210" y="-1646" as="sourcePoint" />
            <mxPoint x="-1100" y="-1496" as="targetPoint" />
            <Array as="points">
              <mxPoint x="-1002" y="-1646" />
            </Array>
          </mxGeometry>
        </mxCell>
        <mxCell id="_pNcX6U958TQj2iGUCa4-247" value="" style="endArrow=none;html=1;rounded=0;shadow=0;strokeWidth=4;entryX=0;entryY=0.75;entryDx=0;entryDy=0;strokeColor=#990099;" parent="1" target="_pNcX6U958TQj2iGUCa4-250" edge="1">
          <mxGeometry width="50" height="50" relative="1" as="geometry">
            <mxPoint x="-1820" y="-1426" as="sourcePoint" />
            <mxPoint x="-1680" y="-1426" as="targetPoint" />
          </mxGeometry>
        </mxCell>
        <mxCell id="_pNcX6U958TQj2iGUCa4-248" value="" style="endArrow=none;html=1;rounded=0;shadow=0;strokeWidth=4;entryX=0;entryY=0.5;entryDx=0;entryDy=0;strokeColor=#00FF00;" parent="1" target="_pNcX6U958TQj2iGUCa4-250" edge="1">
          <mxGeometry width="50" height="50" relative="1" as="geometry">
            <mxPoint x="-1820" y="-1446" as="sourcePoint" />
            <mxPoint x="-1680" y="-1446" as="targetPoint" />
          </mxGeometry>
        </mxCell>
        <mxCell id="_pNcX6U958TQj2iGUCa4-249" value="" style="endArrow=none;html=1;rounded=0;shadow=0;strokeWidth=4;entryX=0;entryY=0.25;entryDx=0;entryDy=0;strokeColor=#33FFFF;" parent="1" target="_pNcX6U958TQj2iGUCa4-250" edge="1">
          <mxGeometry width="50" height="50" relative="1" as="geometry">
            <mxPoint x="-1820" y="-1466" as="sourcePoint" />
            <mxPoint x="-1680" y="-1466" as="targetPoint" />
          </mxGeometry>
        </mxCell>
        <mxCell id="_pNcX6U958TQj2iGUCa4-250" value="" style="whiteSpace=wrap;html=1;aspect=fixed;strokeWidth=4;" parent="1" vertex="1">
          <mxGeometry x="-1620" y="-1485" width="80" height="80" as="geometry" />
        </mxCell>
        <mxCell id="_pNcX6U958TQj2iGUCa4-251" value="" style="endArrow=none;html=1;rounded=0;shadow=0;strokeWidth=4;exitX=1;exitY=0.25;exitDx=0;exitDy=0;fillColor=#e51400;strokeColor=#B20000;" parent="1" source="_pNcX6U958TQj2iGUCa4-250" edge="1">
          <mxGeometry width="50" height="50" relative="1" as="geometry">
            <mxPoint x="-1670" y="-1507" as="sourcePoint" />
            <mxPoint x="-1415" y="-2245" as="targetPoint" />
            <Array as="points">
              <mxPoint x="-1540" y="-1467" />
              <mxPoint x="-1470" y="-1467" />
              <mxPoint x="-1470" y="-2245" />
            </Array>
          </mxGeometry>
        </mxCell>
        <mxCell id="_pNcX6U958TQj2iGUCa4-252" value="" style="endArrow=none;html=1;rounded=0;shadow=0;strokeWidth=4;exitX=1;exitY=0.75;exitDx=0;exitDy=0;fillColor=#e3c800;strokeColor=#FF00FF;" parent="1" source="_pNcX6U958TQj2iGUCa4-250" edge="1">
          <mxGeometry width="50" height="50" relative="1" as="geometry">
            <mxPoint x="-1670" y="-1507" as="sourcePoint" />
            <mxPoint x="-1425" y="-2235" as="targetPoint" />
            <Array as="points">
              <mxPoint x="-1450" y="-1427" />
              <mxPoint x="-1450" y="-2235" />
            </Array>
          </mxGeometry>
        </mxCell>
        <mxCell id="_pNcX6U958TQj2iGUCa4-253" value="SBARRA" style="text;html=1;strokeColor=none;fillColor=none;align=center;verticalAlign=middle;whiteSpace=wrap;rounded=0;" parent="1" vertex="1">
          <mxGeometry x="-1790" y="-1716" width="60" height="30" as="geometry" />
        </mxCell>
        <mxCell id="_pNcX6U958TQj2iGUCa4-254" value="" style="endArrow=none;html=1;rounded=0;shadow=0;strokeWidth=4;fillColor=#e51400;strokeColor=#B20000;" parent="1" edge="1">
          <mxGeometry width="50" height="50" relative="1" as="geometry">
            <mxPoint x="-1460" y="-1846" as="sourcePoint" />
            <mxPoint x="-1340" y="-1846" as="targetPoint" />
          </mxGeometry>
        </mxCell>
        <mxCell id="_pNcX6U958TQj2iGUCa4-255" value="" style="endArrow=none;html=1;rounded=0;shadow=0;strokeWidth=4;strokeColor=#FF00FF;" parent="1" edge="1">
          <mxGeometry width="50" height="50" relative="1" as="geometry">
            <mxPoint x="-1450" y="-1826" as="sourcePoint" />
            <mxPoint x="-1320" y="-1826" as="targetPoint" />
          </mxGeometry>
        </mxCell>
        <mxCell id="_pNcX6U958TQj2iGUCa4-256" value="" style="endArrow=none;html=1;rounded=0;shadow=0;strokeWidth=4;fillColor=#e51400;strokeColor=#B20000;" parent="1" edge="1">
          <mxGeometry width="50" height="50" relative="1" as="geometry">
            <mxPoint x="-1460" y="-1656" as="sourcePoint" />
            <mxPoint x="-1310" y="-1656" as="targetPoint" />
          </mxGeometry>
        </mxCell>
        <mxCell id="_pNcX6U958TQj2iGUCa4-257" value="" style="endArrow=none;html=1;rounded=0;shadow=0;strokeWidth=4;strokeColor=#FF00FF;" parent="1" edge="1">
          <mxGeometry width="50" height="50" relative="1" as="geometry">
            <mxPoint x="-1450" y="-1636" as="sourcePoint" />
            <mxPoint x="-1330" y="-1636" as="targetPoint" />
          </mxGeometry>
        </mxCell>
        <mxCell id="_pNcX6U958TQj2iGUCa4-258" value="" style="endArrow=none;html=1;rounded=0;shadow=0;strokeColor=#33FFFF;strokeWidth=4;startArrow=none;" parent="1" source="5M3Hs7W2gv-Dh-RzH1pC-1" edge="1">
          <mxGeometry width="50" height="50" relative="1" as="geometry">
            <mxPoint x="-1650" y="-1467" as="sourcePoint" />
            <mxPoint x="-1405" y="-2007" as="targetPoint" />
            <Array as="points">
              <mxPoint x="-1650" y="-2007" />
            </Array>
          </mxGeometry>
        </mxCell>
        <mxCell id="_pNcX6U958TQj2iGUCa4-259" value="" style="endArrow=none;html=1;rounded=0;shadow=0;strokeColor=#00FF00;strokeWidth=4;startArrow=none;" parent="1" source="5M3Hs7W2gv-Dh-RzH1pC-3" edge="1">
          <mxGeometry width="50" height="50" relative="1" as="geometry">
            <mxPoint x="-1640" y="-1447" as="sourcePoint" />
            <mxPoint x="-1345" y="-2009" as="targetPoint" />
            <Array as="points">
              <mxPoint x="-1640" y="-1960" />
              <mxPoint x="-1490" y="-1960" />
              <mxPoint x="-1490" y="-1987" />
              <mxPoint x="-1350" y="-1987" />
              <mxPoint x="-1350" y="-2009" />
            </Array>
          </mxGeometry>
        </mxCell>
        <mxCell id="_pNcX6U958TQj2iGUCa4-260" value="" style="endArrow=none;html=1;rounded=0;shadow=0;strokeColor=#990099;strokeWidth=4;startArrow=none;" parent="1" source="5M3Hs7W2gv-Dh-RzH1pC-5" edge="1">
          <mxGeometry width="50" height="50" relative="1" as="geometry">
            <mxPoint x="-1630" y="-1427" as="sourcePoint" />
            <mxPoint x="-1285" y="-2009" as="targetPoint" />
            <Array as="points">
              <mxPoint x="-1630" y="-1920" />
              <mxPoint x="-1445" y="-1920" />
              <mxPoint x="-1445" y="-1975" />
              <mxPoint x="-1290" y="-1977" />
              <mxPoint x="-1290" y="-2009" />
            </Array>
          </mxGeometry>
        </mxCell>
        <mxCell id="_pNcX6U958TQj2iGUCa4-262" value="" style="rhombus;whiteSpace=wrap;html=1;strokeWidth=4;" parent="1" vertex="1">
          <mxGeometry x="-1135" y="-1561" width="40" height="40" as="geometry" />
        </mxCell>
        <mxCell id="_pNcX6U958TQj2iGUCa4-266" value="" style="rhombus;whiteSpace=wrap;html=1;strokeWidth=4;" parent="1" vertex="1">
          <mxGeometry x="-1075" y="-1561" width="40" height="40" as="geometry" />
        </mxCell>
        <mxCell id="_pNcX6U958TQj2iGUCa4-267" value="" style="rhombus;whiteSpace=wrap;html=1;strokeWidth=4;" parent="1" vertex="1">
          <mxGeometry x="-1015" y="-1566" width="40" height="40" as="geometry" />
        </mxCell>
        <mxCell id="_pNcX6U958TQj2iGUCa4-268" value="" style="endArrow=none;html=1;rounded=0;shadow=0;strokeColor=#000000;strokeWidth=4;entryX=0.5;entryY=1;entryDx=0;entryDy=0;exitX=0.5;exitY=0;exitDx=0;exitDy=0;" parent="1" target="_pNcX6U958TQj2iGUCa4-230" edge="1">
          <mxGeometry width="50" height="50" relative="1" as="geometry">
            <mxPoint x="-1115" y="-1561" as="sourcePoint" />
            <mxPoint x="-1050" y="-1546" as="targetPoint" />
          </mxGeometry>
        </mxCell>
        <mxCell id="_pNcX6U958TQj2iGUCa4-269" value="" style="endArrow=none;html=1;rounded=0;shadow=0;strokeColor=#000000;strokeWidth=4;entryX=0.5;entryY=1;entryDx=0;entryDy=0;exitX=0.5;exitY=0;exitDx=0;exitDy=0;" parent="1" target="_pNcX6U958TQj2iGUCa4-231" edge="1">
          <mxGeometry width="50" height="50" relative="1" as="geometry">
            <mxPoint x="-1055" y="-1561" as="sourcePoint" />
            <mxPoint x="-1050" y="-1546" as="targetPoint" />
          </mxGeometry>
        </mxCell>
        <mxCell id="_pNcX6U958TQj2iGUCa4-270" value="" style="endArrow=none;html=1;rounded=0;shadow=0;strokeColor=#000000;strokeWidth=4;entryX=0.5;entryY=1;entryDx=0;entryDy=0;exitX=0.5;exitY=0;exitDx=0;exitDy=0;" parent="1" target="_pNcX6U958TQj2iGUCa4-232" edge="1">
          <mxGeometry width="50" height="50" relative="1" as="geometry">
            <mxPoint x="-995" y="-1566" as="sourcePoint" />
            <mxPoint x="-1050" y="-1546" as="targetPoint" />
          </mxGeometry>
        </mxCell>
        <mxCell id="_pNcX6U958TQj2iGUCa4-271" value="" style="endArrow=none;html=1;rounded=0;shadow=0;strokeColor=#000000;strokeWidth=4;" parent="1" edge="1">
          <mxGeometry width="50" height="50" relative="1" as="geometry">
            <mxPoint x="-1110" y="-1435" as="sourcePoint" />
            <mxPoint x="-1296" y="-2187" as="targetPoint" />
            <Array as="points">
              <mxPoint x="-1110" y="-1387" />
              <mxPoint x="-1041" y="-1387" />
              <mxPoint x="-906" y="-1387" />
              <mxPoint x="-911" y="-2145" />
              <mxPoint x="-1291" y="-2145" />
              <mxPoint x="-1291" y="-2187" />
            </Array>
          </mxGeometry>
        </mxCell>
        <mxCell id="_pNcX6U958TQj2iGUCa4-272" value="" style="endArrow=none;html=1;rounded=0;shadow=0;strokeColor=#000000;strokeWidth=4;" parent="1" edge="1">
          <mxGeometry width="50" height="50" relative="1" as="geometry">
            <mxPoint x="-1050" y="-1440" as="sourcePoint" />
            <mxPoint x="-1245" y="-2187" as="targetPoint" />
            <Array as="points">
              <mxPoint x="-1050" y="-1425" />
              <mxPoint x="-1050" y="-1397" />
              <mxPoint x="-930" y="-1397" />
              <mxPoint x="-935" y="-2167" />
              <mxPoint x="-1240" y="-2167" />
              <mxPoint x="-1240" y="-2187" />
            </Array>
          </mxGeometry>
        </mxCell>
        <mxCell id="_pNcX6U958TQj2iGUCa4-273" value="" style="endArrow=none;html=1;rounded=0;shadow=0;strokeColor=#000000;strokeWidth=4;" parent="1" edge="1">
          <mxGeometry width="50" height="50" relative="1" as="geometry">
            <mxPoint x="-990" y="-1440" as="sourcePoint" />
            <mxPoint x="-1195" y="-2187" as="targetPoint" />
            <Array as="points">
              <mxPoint x="-990" y="-1425" />
              <mxPoint x="-990" y="-1407" />
              <mxPoint x="-960" y="-1407" />
              <mxPoint x="-960" y="-2187" />
              <mxPoint x="-1135" y="-2187" />
            </Array>
          </mxGeometry>
        </mxCell>
        <mxCell id="_pNcX6U958TQj2iGUCa4-274" value="" style="endArrow=none;html=1;rounded=0;shadow=0;strokeWidth=4;" parent="1" edge="1">
          <mxGeometry width="50" height="50" relative="1" as="geometry">
            <mxPoint x="-1040" y="-1356" as="sourcePoint" />
            <mxPoint x="-960" y="-1356" as="targetPoint" />
          </mxGeometry>
        </mxCell>
        <mxCell id="_pNcX6U958TQj2iGUCa4-275" value="" style="endArrow=none;html=1;rounded=0;shadow=0;strokeWidth=4;" parent="1" edge="1">
          <mxGeometry width="50" height="50" relative="1" as="geometry">
            <mxPoint x="-1020" y="-1336" as="sourcePoint" />
            <mxPoint x="-980" y="-1336" as="targetPoint" />
          </mxGeometry>
        </mxCell>
        <mxCell id="_pNcX6U958TQj2iGUCa4-276" value="" style="endArrow=none;html=1;rounded=0;shadow=0;strokeWidth=4;" parent="1" edge="1">
          <mxGeometry width="50" height="50" relative="1" as="geometry">
            <mxPoint x="-980" y="-1336" as="sourcePoint" />
            <mxPoint x="-960" y="-1356" as="targetPoint" />
          </mxGeometry>
        </mxCell>
        <mxCell id="_pNcX6U958TQj2iGUCa4-277" value="" style="endArrow=none;html=1;rounded=0;shadow=0;strokeWidth=4;" parent="1" edge="1">
          <mxGeometry width="50" height="50" relative="1" as="geometry">
            <mxPoint x="-1020" y="-1336" as="sourcePoint" />
            <mxPoint x="-1040" y="-1356" as="targetPoint" />
          </mxGeometry>
        </mxCell>
        <mxCell id="_pNcX6U958TQj2iGUCa4-278" value="" style="endArrow=none;html=1;rounded=0;shadow=0;strokeColor=#000000;strokeWidth=4;" parent="1" edge="1">
          <mxGeometry width="50" height="50" relative="1" as="geometry">
            <mxPoint x="-970" y="-1406" as="sourcePoint" />
            <mxPoint x="-970" y="-1356" as="targetPoint" />
          </mxGeometry>
        </mxCell>
        <mxCell id="_pNcX6U958TQj2iGUCa4-279" value="" style="endArrow=none;html=1;rounded=0;shadow=0;strokeColor=#000000;strokeWidth=4;" parent="1" edge="1">
          <mxGeometry width="50" height="50" relative="1" as="geometry">
            <mxPoint x="-990" y="-1396" as="sourcePoint" />
            <mxPoint x="-990" y="-1356" as="targetPoint" />
          </mxGeometry>
        </mxCell>
        <mxCell id="_pNcX6U958TQj2iGUCa4-280" value="" style="endArrow=none;html=1;rounded=0;shadow=0;strokeColor=#000000;strokeWidth=4;" parent="1" edge="1">
          <mxGeometry width="50" height="50" relative="1" as="geometry">
            <mxPoint x="-1010" y="-1386" as="sourcePoint" />
            <mxPoint x="-1010" y="-1356" as="targetPoint" />
          </mxGeometry>
        </mxCell>
        <mxCell id="_pNcX6U958TQj2iGUCa4-281" value="" style="endArrow=none;html=1;rounded=0;shadow=0;strokeColor=#CC0000;strokeWidth=4;fillColor=#a20025;" parent="1" edge="1">
          <mxGeometry width="50" height="50" relative="1" as="geometry">
            <mxPoint x="-1475" y="-1466" as="sourcePoint" />
            <mxPoint x="-1040" y="-1356" as="targetPoint" />
            <Array as="points">
              <mxPoint x="-1440" y="-1466" />
              <mxPoint x="-1440" y="-1356" />
            </Array>
          </mxGeometry>
        </mxCell>
        <mxCell id="_pNcX6U958TQj2iGUCa4-282" value="" style="endArrow=none;html=1;rounded=0;shadow=0;strokeColor=#FF00FF;strokeWidth=4;" parent="1" edge="1">
          <mxGeometry width="50" height="50" relative="1" as="geometry">
            <mxPoint x="-1450" y="-1426" as="sourcePoint" />
            <mxPoint x="-1020" y="-1336" as="targetPoint" />
            <Array as="points">
              <mxPoint x="-1450" y="-1336" />
            </Array>
          </mxGeometry>
        </mxCell>
        <mxCell id="_pNcX6U958TQj2iGUCa4-283" value="" style="endArrow=none;html=1;rounded=0;shadow=0;strokeColor=#000000;strokeWidth=4;" parent="1" edge="1">
          <mxGeometry width="50" height="50" relative="1" as="geometry">
            <mxPoint x="-1000" y="-1199" as="sourcePoint" />
            <mxPoint x="-1000" y="-1336" as="targetPoint" />
          </mxGeometry>
        </mxCell>
        <mxCell id="_pNcX6U958TQj2iGUCa4-286" value="S1" style="text;html=1;strokeColor=none;fillColor=none;align=center;verticalAlign=middle;whiteSpace=wrap;rounded=0;" parent="1" vertex="1">
          <mxGeometry x="-1820" y="-1496" width="60" height="30" as="geometry" />
        </mxCell>
        <mxCell id="_pNcX6U958TQj2iGUCa4-287" value="S2" style="text;html=1;strokeColor=none;fillColor=none;align=center;verticalAlign=middle;whiteSpace=wrap;rounded=0;" parent="1" vertex="1">
          <mxGeometry x="-1820" y="-1476" width="60" height="30" as="geometry" />
        </mxCell>
        <mxCell id="_pNcX6U958TQj2iGUCa4-288" value="S3" style="text;html=1;strokeColor=none;fillColor=none;align=center;verticalAlign=middle;whiteSpace=wrap;rounded=0;" parent="1" vertex="1">
          <mxGeometry x="-1820" y="-1456" width="60" height="30" as="geometry" />
        </mxCell>
        <mxCell id="_pNcX6U958TQj2iGUCa4-301" value="" style="endArrow=none;html=1;rounded=0;strokeWidth=4;labelBackgroundColor=none;fontColor=default;shadow=0;" parent="1" edge="1">
          <mxGeometry width="50" height="50" relative="1" as="geometry">
            <mxPoint x="-1009" y="-1199" as="sourcePoint" />
            <mxPoint x="-989" y="-1199" as="targetPoint" />
          </mxGeometry>
        </mxCell>
        <mxCell id="_pNcX6U958TQj2iGUCa4-302" value="" style="endArrow=none;html=1;rounded=0;strokeWidth=4;labelBackgroundColor=none;fontColor=default;shadow=0;" parent="1" edge="1">
          <mxGeometry width="50" height="50" relative="1" as="geometry">
            <mxPoint x="-1019" y="-1179" as="sourcePoint" />
            <mxPoint x="-1009" y="-1199" as="targetPoint" />
          </mxGeometry>
        </mxCell>
        <mxCell id="_pNcX6U958TQj2iGUCa4-303" value="" style="endArrow=none;html=1;rounded=0;strokeWidth=4;labelBackgroundColor=none;fontColor=default;shadow=0;" parent="1" edge="1">
          <mxGeometry width="50" height="50" relative="1" as="geometry">
            <mxPoint x="-979" y="-1179" as="sourcePoint" />
            <mxPoint x="-989" y="-1199" as="targetPoint" />
          </mxGeometry>
        </mxCell>
        <mxCell id="_pNcX6U958TQj2iGUCa4-304" value="" style="endArrow=none;html=1;rounded=0;strokeWidth=4;labelBackgroundColor=none;fontColor=default;shadow=0;" parent="1" edge="1">
          <mxGeometry width="50" height="50" relative="1" as="geometry">
            <mxPoint x="-1019" y="-1179" as="sourcePoint" />
            <mxPoint x="-979" y="-1179" as="targetPoint" />
          </mxGeometry>
        </mxCell>
        <mxCell id="_pNcX6U958TQj2iGUCa4-305" value="" style="endArrow=none;html=1;rounded=0;shadow=0;strokeColor=#BDFFB3;strokeWidth=4;" parent="1" edge="1">
          <mxGeometry width="50" height="50" relative="1" as="geometry">
            <mxPoint x="-1430" y="-1686" as="sourcePoint" />
            <mxPoint x="-1015" y="-1189" as="targetPoint" />
            <Array as="points">
              <mxPoint x="-1430" y="-1189" />
            </Array>
          </mxGeometry>
        </mxCell>
        <mxCell id="_pNcX6U958TQj2iGUCa4-306" value="" style="endArrow=classic;html=1;rounded=0;shadow=0;strokeColor=#000000;strokeWidth=4;" parent="1" edge="1">
          <mxGeometry width="50" height="50" relative="1" as="geometry">
            <mxPoint x="-1010" y="-1179" as="sourcePoint" />
            <mxPoint x="-1010" y="-1047" as="targetPoint" />
          </mxGeometry>
        </mxCell>
        <mxCell id="_pNcX6U958TQj2iGUCa4-307" value="" style="endArrow=classic;html=1;rounded=0;shadow=0;strokeColor=#000000;strokeWidth=4;" parent="1" edge="1">
          <mxGeometry width="50" height="50" relative="1" as="geometry">
            <mxPoint x="-990" y="-1179" as="sourcePoint" />
            <mxPoint x="-965" y="-1047" as="targetPoint" />
            <Array as="points">
              <mxPoint x="-990" y="-1097" />
              <mxPoint x="-965" y="-1097" />
            </Array>
          </mxGeometry>
        </mxCell>
        <mxCell id="PU4K7KI0M255V2JwoqGr-7" value="" style="endArrow=none;html=1;rounded=0;strokeWidth=4;" parent="1" edge="1">
          <mxGeometry width="50" height="50" relative="1" as="geometry">
            <mxPoint x="-1805" y="-1037" as="sourcePoint" />
            <mxPoint x="-1495" y="-1037" as="targetPoint" />
          </mxGeometry>
        </mxCell>
        <mxCell id="PU4K7KI0M255V2JwoqGr-12" value="" style="endArrow=none;html=1;rounded=0;strokeColor=#33ffff;strokeWidth=4;" parent="1" edge="1">
          <mxGeometry width="50" height="50" relative="1" as="geometry">
            <mxPoint x="-1315" y="-1576" as="sourcePoint" />
            <mxPoint x="-1650" y="-1576" as="targetPoint" />
            <Array as="points">
              <mxPoint x="-1320" y="-1576" />
            </Array>
          </mxGeometry>
        </mxCell>
        <mxCell id="PU4K7KI0M255V2JwoqGr-14" value="" style="endArrow=none;html=1;rounded=0;strokeColor=#990099;strokeWidth=4;" parent="1" edge="1">
          <mxGeometry width="50" height="50" relative="1" as="geometry">
            <mxPoint x="-1630" y="-1546" as="sourcePoint" />
            <mxPoint x="-1195" y="-1576" as="targetPoint" />
            <Array as="points">
              <mxPoint x="-1410" y="-1546" />
              <mxPoint x="-1200" y="-1546" />
              <mxPoint x="-1200" y="-1576" />
            </Array>
          </mxGeometry>
        </mxCell>
        <mxCell id="PU4K7KI0M255V2JwoqGr-15" value="" style="endArrow=none;html=1;rounded=0;strokeColor=#00ff00;strokeWidth=4;" parent="1" edge="1">
          <mxGeometry width="50" height="50" relative="1" as="geometry">
            <mxPoint x="-1640" y="-1556" as="sourcePoint" />
            <mxPoint x="-1255" y="-1576" as="targetPoint" />
            <Array as="points">
              <mxPoint x="-1400" y="-1556" />
              <mxPoint x="-1330" y="-1556" />
              <mxPoint x="-1260" y="-1556" />
              <mxPoint x="-1260" y="-1576" />
            </Array>
          </mxGeometry>
        </mxCell>
        <mxCell id="PU4K7KI0M255V2JwoqGr-17" value="" style="endArrow=none;html=1;rounded=0;strokeColor=#BDFFB3;strokeWidth=4;entryX=0;entryY=0.5;entryDx=0;entryDy=0;" parent="1" target="_pNcX6U958TQj2iGUCa4-262" edge="1">
          <mxGeometry width="50" height="50" relative="1" as="geometry">
            <mxPoint x="-1430" y="-1426" as="sourcePoint" />
            <mxPoint x="-1190" y="-1556" as="targetPoint" />
            <Array as="points">
              <mxPoint x="-1150" y="-1426" />
              <mxPoint x="-1150" y="-1516" />
              <mxPoint x="-1135" y="-1516" />
            </Array>
          </mxGeometry>
        </mxCell>
        <mxCell id="PU4K7KI0M255V2JwoqGr-18" value="" style="endArrow=none;html=1;rounded=0;strokeColor=#BDFFB3;strokeWidth=4;entryX=0;entryY=0.5;entryDx=0;entryDy=0;" parent="1" target="_pNcX6U958TQj2iGUCa4-266" edge="1">
          <mxGeometry width="50" height="50" relative="1" as="geometry">
            <mxPoint x="-1150" y="-1426" as="sourcePoint" />
            <mxPoint x="-1010" y="-1426" as="targetPoint" />
            <Array as="points">
              <mxPoint x="-1150" y="-1416" />
              <mxPoint x="-1075" y="-1416" />
            </Array>
          </mxGeometry>
        </mxCell>
        <mxCell id="PU4K7KI0M255V2JwoqGr-19" value="" style="endArrow=none;html=1;rounded=0;strokeColor=#BDFFB3;strokeWidth=4;entryX=0;entryY=0.5;entryDx=0;entryDy=0;" parent="1" target="_pNcX6U958TQj2iGUCa4-267" edge="1">
          <mxGeometry width="50" height="50" relative="1" as="geometry">
            <mxPoint x="-1080" y="-1416" as="sourcePoint" />
            <mxPoint x="-1010" y="-1426" as="targetPoint" />
            <Array as="points">
              <mxPoint x="-1015" y="-1416" />
            </Array>
          </mxGeometry>
        </mxCell>
        <mxCell id="_pNcX6U958TQj2iGUCa4-229" value="" style="whiteSpace=wrap;html=1;aspect=fixed;strokeWidth=4;" parent="1" vertex="1">
          <mxGeometry x="-1180" y="-1169" width="30" height="30" as="geometry" />
        </mxCell>
        <mxCell id="PU4K7KI0M255V2JwoqGr-22" value="" style="endArrow=none;html=1;rounded=0;shadow=0;strokeWidth=4;" parent="1" edge="1">
          <mxGeometry width="50" height="50" relative="1" as="geometry">
            <mxPoint x="-1320" y="-1516.77" as="sourcePoint" />
            <mxPoint x="-1280" y="-1516.77" as="targetPoint" />
          </mxGeometry>
        </mxCell>
        <mxCell id="PU4K7KI0M255V2JwoqGr-23" value="" style="endArrow=none;html=1;rounded=0;shadow=0;strokeWidth=4;" parent="1" edge="1">
          <mxGeometry width="50" height="50" relative="1" as="geometry">
            <mxPoint x="-1310" y="-1496.77" as="sourcePoint" />
            <mxPoint x="-1290" y="-1496.77" as="targetPoint" />
          </mxGeometry>
        </mxCell>
        <mxCell id="PU4K7KI0M255V2JwoqGr-24" value="" style="endArrow=none;html=1;rounded=0;shadow=0;strokeWidth=4;" parent="1" edge="1">
          <mxGeometry width="50" height="50" relative="1" as="geometry">
            <mxPoint x="-1290" y="-1496.77" as="sourcePoint" />
            <mxPoint x="-1280" y="-1516.77" as="targetPoint" />
          </mxGeometry>
        </mxCell>
        <mxCell id="PU4K7KI0M255V2JwoqGr-25" value="" style="endArrow=none;html=1;rounded=0;shadow=0;strokeWidth=4;" parent="1" edge="1">
          <mxGeometry width="50" height="50" relative="1" as="geometry">
            <mxPoint x="-1310" y="-1496.77" as="sourcePoint" />
            <mxPoint x="-1320" y="-1516.77" as="targetPoint" />
          </mxGeometry>
        </mxCell>
        <mxCell id="PU4K7KI0M255V2JwoqGr-26" value="" style="endArrow=none;html=1;rounded=0;shadow=0;strokeWidth=4;" parent="1" edge="1">
          <mxGeometry width="50" height="50" relative="1" as="geometry">
            <mxPoint x="-1260" y="-1516.77" as="sourcePoint" />
            <mxPoint x="-1220" y="-1516.77" as="targetPoint" />
          </mxGeometry>
        </mxCell>
        <mxCell id="PU4K7KI0M255V2JwoqGr-27" value="" style="endArrow=none;html=1;rounded=0;shadow=0;strokeWidth=4;" parent="1" edge="1">
          <mxGeometry width="50" height="50" relative="1" as="geometry">
            <mxPoint x="-1250" y="-1496.77" as="sourcePoint" />
            <mxPoint x="-1230" y="-1496.77" as="targetPoint" />
          </mxGeometry>
        </mxCell>
        <mxCell id="PU4K7KI0M255V2JwoqGr-28" value="" style="endArrow=none;html=1;rounded=0;shadow=0;strokeWidth=4;" parent="1" edge="1">
          <mxGeometry width="50" height="50" relative="1" as="geometry">
            <mxPoint x="-1230" y="-1496.77" as="sourcePoint" />
            <mxPoint x="-1220" y="-1516.77" as="targetPoint" />
          </mxGeometry>
        </mxCell>
        <mxCell id="PU4K7KI0M255V2JwoqGr-29" value="" style="endArrow=none;html=1;rounded=0;shadow=0;strokeWidth=4;" parent="1" edge="1">
          <mxGeometry width="50" height="50" relative="1" as="geometry">
            <mxPoint x="-1250" y="-1496.77" as="sourcePoint" />
            <mxPoint x="-1260" y="-1516.77" as="targetPoint" />
          </mxGeometry>
        </mxCell>
        <mxCell id="PU4K7KI0M255V2JwoqGr-30" value="" style="endArrow=none;html=1;rounded=0;shadow=0;strokeWidth=4;" parent="1" edge="1">
          <mxGeometry width="50" height="50" relative="1" as="geometry">
            <mxPoint x="-1200" y="-1516.77" as="sourcePoint" />
            <mxPoint x="-1160" y="-1516.77" as="targetPoint" />
          </mxGeometry>
        </mxCell>
        <mxCell id="PU4K7KI0M255V2JwoqGr-31" value="" style="endArrow=none;html=1;rounded=0;shadow=0;strokeWidth=4;" parent="1" edge="1">
          <mxGeometry width="50" height="50" relative="1" as="geometry">
            <mxPoint x="-1190" y="-1496.77" as="sourcePoint" />
            <mxPoint x="-1170" y="-1496.77" as="targetPoint" />
          </mxGeometry>
        </mxCell>
        <mxCell id="PU4K7KI0M255V2JwoqGr-32" value="" style="endArrow=none;html=1;rounded=0;shadow=0;strokeWidth=4;" parent="1" edge="1">
          <mxGeometry width="50" height="50" relative="1" as="geometry">
            <mxPoint x="-1170" y="-1496.77" as="sourcePoint" />
            <mxPoint x="-1160" y="-1516.77" as="targetPoint" />
          </mxGeometry>
        </mxCell>
        <mxCell id="PU4K7KI0M255V2JwoqGr-33" value="" style="endArrow=none;html=1;rounded=0;shadow=0;strokeWidth=4;" parent="1" edge="1">
          <mxGeometry width="50" height="50" relative="1" as="geometry">
            <mxPoint x="-1190" y="-1496.77" as="sourcePoint" />
            <mxPoint x="-1200" y="-1516.77" as="targetPoint" />
          </mxGeometry>
        </mxCell>
        <mxCell id="PU4K7KI0M255V2JwoqGr-34" value="" style="endArrow=none;html=1;rounded=0;strokeColor=#000000;strokeWidth=4;" parent="1" edge="1">
          <mxGeometry width="50" height="50" relative="1" as="geometry">
            <mxPoint x="-1315" y="-1506" as="sourcePoint" />
            <mxPoint x="-1110" y="-1386" as="targetPoint" />
            <Array as="points">
              <mxPoint x="-1330" y="-1506" />
              <mxPoint x="-1330" y="-1386" />
            </Array>
          </mxGeometry>
        </mxCell>
        <mxCell id="PU4K7KI0M255V2JwoqGr-35" value="" style="endArrow=none;html=1;rounded=0;strokeColor=#000000;strokeWidth=4;" parent="1" edge="1">
          <mxGeometry width="50" height="50" relative="1" as="geometry">
            <mxPoint x="-1255" y="-1506" as="sourcePoint" />
            <mxPoint x="-1050" y="-1396" as="targetPoint" />
            <Array as="points">
              <mxPoint x="-1270" y="-1506" />
              <mxPoint x="-1270" y="-1396" />
            </Array>
          </mxGeometry>
        </mxCell>
        <mxCell id="PU4K7KI0M255V2JwoqGr-36" value="" style="endArrow=none;html=1;rounded=0;strokeColor=#000000;strokeWidth=4;" parent="1" edge="1">
          <mxGeometry width="50" height="50" relative="1" as="geometry">
            <mxPoint x="-1195" y="-1506" as="sourcePoint" />
            <mxPoint x="-980" y="-1406" as="targetPoint" />
            <Array as="points">
              <mxPoint x="-1210" y="-1506" />
              <mxPoint x="-1210" y="-1406" />
            </Array>
          </mxGeometry>
        </mxCell>
        <mxCell id="PU4K7KI0M255V2JwoqGr-37" value="" style="endArrow=none;html=1;rounded=0;strokeColor=#d79b00;strokeWidth=4;" parent="1" edge="1">
          <mxGeometry width="50" height="50" relative="1" as="geometry">
            <mxPoint x="-1290" y="-1516" as="sourcePoint" />
            <mxPoint x="-1270" y="-1626" as="targetPoint" />
            <Array as="points">
              <mxPoint x="-1290" y="-1526" />
              <mxPoint x="-1270" y="-1526" />
            </Array>
          </mxGeometry>
        </mxCell>
        <mxCell id="PU4K7KI0M255V2JwoqGr-38" value="" style="endArrow=none;html=1;rounded=0;strokeColor=#001dbc;strokeWidth=4;" parent="1" edge="1">
          <mxGeometry width="50" height="50" relative="1" as="geometry">
            <mxPoint x="-1230" y="-1516" as="sourcePoint" />
            <mxPoint x="-1220" y="-1616" as="targetPoint" />
            <Array as="points">
              <mxPoint x="-1230" y="-1526" />
              <mxPoint x="-1220" y="-1526" />
              <mxPoint x="-1210" y="-1526" />
              <mxPoint x="-1210" y="-1556" />
              <mxPoint x="-1210" y="-1596" />
              <mxPoint x="-1220" y="-1596" />
            </Array>
          </mxGeometry>
        </mxCell>
        <mxCell id="PU4K7KI0M255V2JwoqGr-40" value="" style="endArrow=none;html=1;rounded=0;strokeColor=#2d7600;strokeWidth=4;" parent="1" edge="1">
          <mxGeometry width="50" height="50" relative="1" as="geometry">
            <mxPoint x="-1170" y="-1516" as="sourcePoint" />
            <mxPoint x="-1170" y="-1616" as="targetPoint" />
            <Array as="points">
              <mxPoint x="-1170" y="-1526" />
              <mxPoint x="-1150" y="-1526" />
              <mxPoint x="-1150" y="-1616" />
            </Array>
          </mxGeometry>
        </mxCell>
        <mxCell id="PU4K7KI0M255V2JwoqGr-41" value="" style="endArrow=none;html=1;rounded=0;strokeColor=#000000;strokeWidth=4;" parent="1" edge="1">
          <mxGeometry width="50" height="50" relative="1" as="geometry">
            <mxPoint x="-1190" y="-1516" as="sourcePoint" />
            <mxPoint x="-1180" y="-1566" as="targetPoint" />
            <Array as="points">
              <mxPoint x="-1190" y="-1526" />
              <mxPoint x="-1180" y="-1526" />
            </Array>
          </mxGeometry>
        </mxCell>
        <mxCell id="PU4K7KI0M255V2JwoqGr-42" value="" style="endArrow=none;html=1;rounded=0;strokeColor=#000000;strokeWidth=4;" parent="1" edge="1">
          <mxGeometry width="50" height="50" relative="1" as="geometry">
            <mxPoint x="-1250" y="-1516" as="sourcePoint" />
            <mxPoint x="-1240" y="-1566" as="targetPoint" />
            <Array as="points">
              <mxPoint x="-1250" y="-1526" />
              <mxPoint x="-1240" y="-1526" />
            </Array>
          </mxGeometry>
        </mxCell>
        <mxCell id="PU4K7KI0M255V2JwoqGr-43" value="" style="endArrow=none;html=1;rounded=0;strokeColor=#000000;strokeWidth=4;" parent="1" edge="1">
          <mxGeometry width="50" height="50" relative="1" as="geometry">
            <mxPoint x="-1310" y="-1516" as="sourcePoint" />
            <mxPoint x="-1300" y="-1566" as="targetPoint" />
            <Array as="points">
              <mxPoint x="-1310" y="-1526" />
              <mxPoint x="-1300" y="-1526" />
            </Array>
          </mxGeometry>
        </mxCell>
        <mxCell id="PU4K7KI0M255V2JwoqGr-60" value="" style="endArrow=none;html=1;rounded=0;shadow=0;strokeWidth=4;" parent="1" edge="1">
          <mxGeometry width="50" height="50" relative="1" as="geometry">
            <mxPoint x="-1130" y="-1506.74" as="sourcePoint" />
            <mxPoint x="-1090" y="-1506.74" as="targetPoint" />
          </mxGeometry>
        </mxCell>
        <mxCell id="PU4K7KI0M255V2JwoqGr-61" value="" style="endArrow=none;html=1;rounded=0;shadow=0;strokeWidth=4;" parent="1" edge="1">
          <mxGeometry width="50" height="50" relative="1" as="geometry">
            <mxPoint x="-1120" y="-1486.74" as="sourcePoint" />
            <mxPoint x="-1100" y="-1486.74" as="targetPoint" />
          </mxGeometry>
        </mxCell>
        <mxCell id="PU4K7KI0M255V2JwoqGr-62" value="" style="endArrow=none;html=1;rounded=0;shadow=0;strokeWidth=4;" parent="1" edge="1">
          <mxGeometry width="50" height="50" relative="1" as="geometry">
            <mxPoint x="-1100" y="-1486.74" as="sourcePoint" />
            <mxPoint x="-1090" y="-1506.74" as="targetPoint" />
          </mxGeometry>
        </mxCell>
        <mxCell id="PU4K7KI0M255V2JwoqGr-63" value="" style="endArrow=none;html=1;rounded=0;shadow=0;strokeWidth=4;" parent="1" edge="1">
          <mxGeometry width="50" height="50" relative="1" as="geometry">
            <mxPoint x="-1120" y="-1486.74" as="sourcePoint" />
            <mxPoint x="-1130" y="-1506.74" as="targetPoint" />
          </mxGeometry>
        </mxCell>
        <mxCell id="PU4K7KI0M255V2JwoqGr-64" value="" style="endArrow=none;html=1;rounded=0;shadow=0;strokeWidth=4;" parent="1" edge="1">
          <mxGeometry width="50" height="50" relative="1" as="geometry">
            <mxPoint x="-1070" y="-1506.74" as="sourcePoint" />
            <mxPoint x="-1030" y="-1506.74" as="targetPoint" />
          </mxGeometry>
        </mxCell>
        <mxCell id="PU4K7KI0M255V2JwoqGr-65" value="" style="endArrow=none;html=1;rounded=0;shadow=0;strokeWidth=4;" parent="1" edge="1">
          <mxGeometry width="50" height="50" relative="1" as="geometry">
            <mxPoint x="-1060" y="-1486.74" as="sourcePoint" />
            <mxPoint x="-1040" y="-1486.74" as="targetPoint" />
          </mxGeometry>
        </mxCell>
        <mxCell id="PU4K7KI0M255V2JwoqGr-66" value="" style="endArrow=none;html=1;rounded=0;shadow=0;strokeWidth=4;" parent="1" edge="1">
          <mxGeometry width="50" height="50" relative="1" as="geometry">
            <mxPoint x="-1040" y="-1486.74" as="sourcePoint" />
            <mxPoint x="-1030" y="-1506.74" as="targetPoint" />
          </mxGeometry>
        </mxCell>
        <mxCell id="PU4K7KI0M255V2JwoqGr-67" value="" style="endArrow=none;html=1;rounded=0;shadow=0;strokeWidth=4;" parent="1" edge="1">
          <mxGeometry width="50" height="50" relative="1" as="geometry">
            <mxPoint x="-1060" y="-1486.74" as="sourcePoint" />
            <mxPoint x="-1070" y="-1506.74" as="targetPoint" />
          </mxGeometry>
        </mxCell>
        <mxCell id="PU4K7KI0M255V2JwoqGr-68" value="" style="endArrow=none;html=1;rounded=0;shadow=0;strokeWidth=4;" parent="1" edge="1">
          <mxGeometry width="50" height="50" relative="1" as="geometry">
            <mxPoint x="-1010" y="-1506.74" as="sourcePoint" />
            <mxPoint x="-970" y="-1506.74" as="targetPoint" />
          </mxGeometry>
        </mxCell>
        <mxCell id="PU4K7KI0M255V2JwoqGr-69" value="" style="endArrow=none;html=1;rounded=0;shadow=0;strokeWidth=4;" parent="1" edge="1">
          <mxGeometry width="50" height="50" relative="1" as="geometry">
            <mxPoint x="-1000" y="-1486.74" as="sourcePoint" />
            <mxPoint x="-980" y="-1486.74" as="targetPoint" />
          </mxGeometry>
        </mxCell>
        <mxCell id="PU4K7KI0M255V2JwoqGr-70" value="" style="endArrow=none;html=1;rounded=0;shadow=0;strokeWidth=4;" parent="1" edge="1">
          <mxGeometry width="50" height="50" relative="1" as="geometry">
            <mxPoint x="-980" y="-1486.74" as="sourcePoint" />
            <mxPoint x="-970" y="-1506.74" as="targetPoint" />
          </mxGeometry>
        </mxCell>
        <mxCell id="PU4K7KI0M255V2JwoqGr-71" value="" style="endArrow=none;html=1;rounded=0;shadow=0;strokeWidth=4;" parent="1" edge="1">
          <mxGeometry width="50" height="50" relative="1" as="geometry">
            <mxPoint x="-1000" y="-1486.74" as="sourcePoint" />
            <mxPoint x="-1010" y="-1506.74" as="targetPoint" />
          </mxGeometry>
        </mxCell>
        <mxCell id="PU4K7KI0M255V2JwoqGr-72" value="" style="endArrow=none;html=1;rounded=0;strokeColor=#000000;strokeWidth=4;" parent="1" edge="1">
          <mxGeometry width="50" height="50" relative="1" as="geometry">
            <mxPoint x="-1110" y="-1426" as="sourcePoint" />
            <mxPoint x="-1110" y="-1486" as="targetPoint" />
          </mxGeometry>
        </mxCell>
        <mxCell id="PU4K7KI0M255V2JwoqGr-74" value="" style="endArrow=none;html=1;rounded=0;strokeColor=#000000;strokeWidth=4;" parent="1" edge="1">
          <mxGeometry width="50" height="50" relative="1" as="geometry">
            <mxPoint x="-1050" y="-1426" as="sourcePoint" />
            <mxPoint x="-1050" y="-1486" as="targetPoint" />
            <Array as="points">
              <mxPoint x="-1050" y="-1426" />
              <mxPoint x="-1050" y="-1436" />
            </Array>
          </mxGeometry>
        </mxCell>
        <mxCell id="PU4K7KI0M255V2JwoqGr-75" value="" style="endArrow=none;html=1;rounded=0;strokeColor=#000000;strokeWidth=4;" parent="1" edge="1">
          <mxGeometry width="50" height="50" relative="1" as="geometry">
            <mxPoint x="-990" y="-1426" as="sourcePoint" />
            <mxPoint x="-990" y="-1486" as="targetPoint" />
          </mxGeometry>
        </mxCell>
        <mxCell id="PU4K7KI0M255V2JwoqGr-79" value="" style="endArrow=none;html=1;rounded=0;strokeColor=#000000;strokeWidth=4;entryX=0.5;entryY=1;entryDx=0;entryDy=0;" parent="1" target="_pNcX6U958TQj2iGUCa4-262" edge="1">
          <mxGeometry width="50" height="50" relative="1" as="geometry">
            <mxPoint x="-1120" y="-1506" as="sourcePoint" />
            <mxPoint x="-960" y="-1516" as="targetPoint" />
            <Array as="points">
              <mxPoint x="-1120" y="-1516" />
              <mxPoint x="-1115" y="-1516" />
            </Array>
          </mxGeometry>
        </mxCell>
        <mxCell id="PU4K7KI0M255V2JwoqGr-80" value="" style="endArrow=none;html=1;rounded=0;strokeColor=#33ffff;strokeWidth=4;" parent="1" edge="1">
          <mxGeometry width="50" height="50" relative="1" as="geometry">
            <mxPoint x="-1370" y="-1576" as="sourcePoint" />
            <mxPoint x="-1125" y="-1496" as="targetPoint" />
            <Array as="points">
              <mxPoint x="-1370" y="-1486" />
              <mxPoint x="-1130" y="-1486" />
              <mxPoint x="-1130" y="-1496" />
            </Array>
          </mxGeometry>
        </mxCell>
        <mxCell id="PU4K7KI0M255V2JwoqGr-81" value="" style="endArrow=none;html=1;rounded=0;strokeColor=#00ff00;strokeWidth=4;" parent="1" edge="1">
          <mxGeometry width="50" height="50" relative="1" as="geometry">
            <mxPoint x="-1380" y="-1556" as="sourcePoint" />
            <mxPoint x="-1065" y="-1496" as="targetPoint" />
            <Array as="points">
              <mxPoint x="-1380" y="-1476" />
              <mxPoint x="-1090" y="-1476" />
              <mxPoint x="-1090" y="-1496" />
            </Array>
          </mxGeometry>
        </mxCell>
        <mxCell id="PU4K7KI0M255V2JwoqGr-82" value="" style="endArrow=none;html=1;rounded=0;strokeColor=#990099;strokeWidth=4;" parent="1" edge="1">
          <mxGeometry width="50" height="50" relative="1" as="geometry">
            <mxPoint x="-1390" y="-1546" as="sourcePoint" />
            <mxPoint x="-1005" y="-1496" as="targetPoint" />
            <Array as="points">
              <mxPoint x="-1390" y="-1466" />
              <mxPoint x="-1030" y="-1466" />
              <mxPoint x="-1030" y="-1496" />
            </Array>
          </mxGeometry>
        </mxCell>
        <mxCell id="PU4K7KI0M255V2JwoqGr-83" value="" style="endArrow=none;html=1;rounded=0;strokeColor=#000000;strokeWidth=4;exitX=0.25;exitY=0;exitDx=0;exitDy=0;" parent="1" source="_pNcX6U958TQj2iGUCa4-227" edge="1">
          <mxGeometry width="50" height="50" relative="1" as="geometry">
            <mxPoint x="-1170" y="-1506" as="sourcePoint" />
            <mxPoint x="-1300" y="-1496" as="targetPoint" />
            <Array as="points">
              <mxPoint x="-1295" y="-1476" />
              <mxPoint x="-1300" y="-1476" />
            </Array>
          </mxGeometry>
        </mxCell>
        <mxCell id="PU4K7KI0M255V2JwoqGr-84" value="" style="endArrow=none;html=1;rounded=0;strokeColor=#000000;strokeWidth=4;exitX=0.25;exitY=0;exitDx=0;exitDy=0;" parent="1" source="_pNcX6U958TQj2iGUCa4-228" edge="1">
          <mxGeometry width="50" height="50" relative="1" as="geometry">
            <mxPoint x="-1237.5" y="-1461" as="sourcePoint" />
            <mxPoint x="-1242.5" y="-1496" as="targetPoint" />
            <Array as="points">
              <mxPoint x="-1237" y="-1476" />
              <mxPoint x="-1242" y="-1476" />
            </Array>
          </mxGeometry>
        </mxCell>
        <mxCell id="PU4K7KI0M255V2JwoqGr-85" value="" style="endArrow=none;html=1;rounded=0;strokeColor=#000000;strokeWidth=4;exitX=0.25;exitY=0;exitDx=0;exitDy=0;" parent="1" source="_pNcX6U958TQj2iGUCa4-229" edge="1">
          <mxGeometry width="50" height="50" relative="1" as="geometry">
            <mxPoint x="-1172.5" y="-1461" as="sourcePoint" />
            <mxPoint x="-1180" y="-1496" as="targetPoint" />
            <Array as="points">
              <mxPoint x="-1175" y="-1476" />
              <mxPoint x="-1180" y="-1476" />
            </Array>
          </mxGeometry>
        </mxCell>
        <mxCell id="PU4K7KI0M255V2JwoqGr-86" value="" style="endArrow=none;html=1;rounded=0;strokeColor=#999999;strokeWidth=4;" parent="1" edge="1">
          <mxGeometry width="50" height="50" relative="1" as="geometry">
            <mxPoint x="-1100" y="-1506" as="sourcePoint" />
            <mxPoint x="-860" y="-1516" as="targetPoint" />
            <Array as="points">
              <mxPoint x="-1100" y="-1516" />
            </Array>
          </mxGeometry>
        </mxCell>
        <mxCell id="PU4K7KI0M255V2JwoqGr-87" value="" style="endArrow=none;html=1;rounded=0;strokeColor=#000000;strokeWidth=4;entryX=0.5;entryY=1;entryDx=0;entryDy=0;" parent="1" target="_pNcX6U958TQj2iGUCa4-267" edge="1">
          <mxGeometry width="50" height="50" relative="1" as="geometry">
            <mxPoint x="-1000" y="-1506" as="sourcePoint" />
            <mxPoint x="-985" y="-1516" as="targetPoint" />
            <Array as="points">
              <mxPoint x="-1000" y="-1516" />
              <mxPoint x="-995" y="-1516" />
            </Array>
          </mxGeometry>
        </mxCell>
        <mxCell id="PU4K7KI0M255V2JwoqGr-88" value="" style="endArrow=none;html=1;rounded=0;strokeColor=#000000;strokeWidth=4;entryX=0.5;entryY=1;entryDx=0;entryDy=0;" parent="1" target="_pNcX6U958TQj2iGUCa4-266" edge="1">
          <mxGeometry width="50" height="50" relative="1" as="geometry">
            <mxPoint x="-1060" y="-1506" as="sourcePoint" />
            <mxPoint x="-1045" y="-1511" as="targetPoint" />
            <Array as="points">
              <mxPoint x="-1060" y="-1516" />
              <mxPoint x="-1055" y="-1516" />
            </Array>
          </mxGeometry>
        </mxCell>
        <mxCell id="PU4K7KI0M255V2JwoqGr-89" value="" style="endArrow=none;html=1;rounded=0;strokeColor=#999999;strokeWidth=4;" parent="1" edge="1">
          <mxGeometry width="50" height="50" relative="1" as="geometry">
            <mxPoint x="-1040" y="-1506" as="sourcePoint" />
            <mxPoint x="-1040" y="-1516" as="targetPoint" />
          </mxGeometry>
        </mxCell>
        <mxCell id="PU4K7KI0M255V2JwoqGr-90" value="" style="endArrow=none;html=1;rounded=0;strokeColor=#999999;strokeWidth=4;" parent="1" edge="1">
          <mxGeometry width="50" height="50" relative="1" as="geometry">
            <mxPoint x="-980" y="-1506" as="sourcePoint" />
            <mxPoint x="-980" y="-1516" as="targetPoint" />
          </mxGeometry>
        </mxCell>
        <mxCell id="PU4K7KI0M255V2JwoqGr-91" value="" style="endArrow=none;html=1;rounded=0;strokeColor=#999999;strokeWidth=4;exitX=0.667;exitY=0;exitDx=0;exitDy=0;exitPerimeter=0;" parent="1" source="_pNcX6U958TQj2iGUCa4-230" edge="1">
          <mxGeometry width="50" height="50" relative="1" as="geometry">
            <mxPoint x="-1030" y="-1616" as="sourcePoint" />
            <mxPoint x="-850" y="-1626" as="targetPoint" />
            <Array as="points">
              <mxPoint x="-1110" y="-1626" />
            </Array>
          </mxGeometry>
        </mxCell>
        <mxCell id="PU4K7KI0M255V2JwoqGr-92" value="" style="endArrow=none;html=1;rounded=0;strokeColor=#999999;strokeWidth=4;exitX=0.75;exitY=0;exitDx=0;exitDy=0;" parent="1" source="_pNcX6U958TQj2iGUCa4-231" edge="1">
          <mxGeometry width="50" height="50" relative="1" as="geometry">
            <mxPoint x="-1030" y="-1616" as="sourcePoint" />
            <mxPoint x="-1047" y="-1626" as="targetPoint" />
          </mxGeometry>
        </mxCell>
        <mxCell id="PU4K7KI0M255V2JwoqGr-93" value="" style="endArrow=none;html=1;rounded=0;strokeColor=#999999;strokeWidth=4;exitX=0.75;exitY=0;exitDx=0;exitDy=0;" parent="1" source="_pNcX6U958TQj2iGUCa4-232" edge="1">
          <mxGeometry width="50" height="50" relative="1" as="geometry">
            <mxPoint x="-1030" y="-1616" as="sourcePoint" />
            <mxPoint x="-987" y="-1616" as="targetPoint" />
          </mxGeometry>
        </mxCell>
        <mxCell id="PU4K7KI0M255V2JwoqGr-94" value="" style="endArrow=none;html=1;rounded=0;strokeColor=#999999;strokeWidth=4;" parent="1" edge="1">
          <mxGeometry width="50" height="50" relative="1" as="geometry">
            <mxPoint x="-990" y="-1616" as="sourcePoint" />
            <mxPoint x="-850" y="-1616" as="targetPoint" />
          </mxGeometry>
        </mxCell>
        <mxCell id="yAR198e4R8kWAR2zlatF-1" value="" style="endArrow=none;html=1;rounded=0;shadow=0;strokeWidth=4;" parent="1" edge="1">
          <mxGeometry width="50" height="50" relative="1" as="geometry">
            <mxPoint x="-1315" y="-1047" as="sourcePoint" />
            <mxPoint x="-1275" y="-1047" as="targetPoint" />
          </mxGeometry>
        </mxCell>
        <mxCell id="yAR198e4R8kWAR2zlatF-2" value="" style="endArrow=none;html=1;rounded=0;shadow=0;strokeWidth=4;" parent="1" edge="1">
          <mxGeometry width="50" height="50" relative="1" as="geometry">
            <mxPoint x="-1305" y="-1027" as="sourcePoint" />
            <mxPoint x="-1285" y="-1027" as="targetPoint" />
          </mxGeometry>
        </mxCell>
        <mxCell id="yAR198e4R8kWAR2zlatF-3" value="" style="endArrow=none;html=1;rounded=0;shadow=0;strokeWidth=4;" parent="1" edge="1">
          <mxGeometry width="50" height="50" relative="1" as="geometry">
            <mxPoint x="-1285" y="-1027" as="sourcePoint" />
            <mxPoint x="-1275" y="-1047" as="targetPoint" />
          </mxGeometry>
        </mxCell>
        <mxCell id="yAR198e4R8kWAR2zlatF-4" value="" style="endArrow=none;html=1;rounded=0;shadow=0;strokeWidth=4;" parent="1" edge="1">
          <mxGeometry width="50" height="50" relative="1" as="geometry">
            <mxPoint x="-1305" y="-1027" as="sourcePoint" />
            <mxPoint x="-1315" y="-1047" as="targetPoint" />
          </mxGeometry>
        </mxCell>
        <mxCell id="yAR198e4R8kWAR2zlatF-5" value="" style="endArrow=none;html=1;rounded=0;shadow=0;strokeWidth=4;" parent="1" edge="1">
          <mxGeometry width="50" height="50" relative="1" as="geometry">
            <mxPoint x="-1255" y="-1047" as="sourcePoint" />
            <mxPoint x="-1215" y="-1047" as="targetPoint" />
          </mxGeometry>
        </mxCell>
        <mxCell id="yAR198e4R8kWAR2zlatF-6" value="" style="endArrow=none;html=1;rounded=0;shadow=0;strokeWidth=4;" parent="1" edge="1">
          <mxGeometry width="50" height="50" relative="1" as="geometry">
            <mxPoint x="-1245" y="-1027" as="sourcePoint" />
            <mxPoint x="-1225" y="-1027" as="targetPoint" />
          </mxGeometry>
        </mxCell>
        <mxCell id="yAR198e4R8kWAR2zlatF-7" value="" style="endArrow=none;html=1;rounded=0;shadow=0;strokeWidth=4;" parent="1" edge="1">
          <mxGeometry width="50" height="50" relative="1" as="geometry">
            <mxPoint x="-1225" y="-1027" as="sourcePoint" />
            <mxPoint x="-1215" y="-1047" as="targetPoint" />
          </mxGeometry>
        </mxCell>
        <mxCell id="yAR198e4R8kWAR2zlatF-8" value="" style="endArrow=none;html=1;rounded=0;shadow=0;strokeWidth=4;" parent="1" edge="1">
          <mxGeometry width="50" height="50" relative="1" as="geometry">
            <mxPoint x="-1245" y="-1027" as="sourcePoint" />
            <mxPoint x="-1255" y="-1047" as="targetPoint" />
          </mxGeometry>
        </mxCell>
        <mxCell id="yAR198e4R8kWAR2zlatF-9" value="" style="endArrow=none;html=1;rounded=0;shadow=0;strokeWidth=4;" parent="1" edge="1">
          <mxGeometry width="50" height="50" relative="1" as="geometry">
            <mxPoint x="-1195" y="-1047" as="sourcePoint" />
            <mxPoint x="-1155" y="-1047" as="targetPoint" />
          </mxGeometry>
        </mxCell>
        <mxCell id="yAR198e4R8kWAR2zlatF-10" value="" style="endArrow=none;html=1;rounded=0;shadow=0;strokeWidth=4;" parent="1" edge="1">
          <mxGeometry width="50" height="50" relative="1" as="geometry">
            <mxPoint x="-1185" y="-1027" as="sourcePoint" />
            <mxPoint x="-1165" y="-1027" as="targetPoint" />
          </mxGeometry>
        </mxCell>
        <mxCell id="yAR198e4R8kWAR2zlatF-11" value="" style="endArrow=none;html=1;rounded=0;shadow=0;strokeWidth=4;" parent="1" edge="1">
          <mxGeometry width="50" height="50" relative="1" as="geometry">
            <mxPoint x="-1165" y="-1027" as="sourcePoint" />
            <mxPoint x="-1155" y="-1047" as="targetPoint" />
          </mxGeometry>
        </mxCell>
        <mxCell id="yAR198e4R8kWAR2zlatF-12" value="" style="endArrow=none;html=1;rounded=0;shadow=0;strokeWidth=4;" parent="1" edge="1">
          <mxGeometry width="50" height="50" relative="1" as="geometry">
            <mxPoint x="-1185" y="-1027" as="sourcePoint" />
            <mxPoint x="-1195" y="-1047" as="targetPoint" />
          </mxGeometry>
        </mxCell>
        <mxCell id="yAR198e4R8kWAR2zlatF-13" value="" style="endArrow=none;html=1;rounded=0;shadow=0;strokeWidth=4;" parent="1" edge="1">
          <mxGeometry width="50" height="50" relative="1" as="geometry">
            <mxPoint x="-1040" y="-1047" as="sourcePoint" />
            <mxPoint x="-1000" y="-1047" as="targetPoint" />
          </mxGeometry>
        </mxCell>
        <mxCell id="yAR198e4R8kWAR2zlatF-14" value="" style="endArrow=none;html=1;rounded=0;shadow=0;strokeWidth=4;" parent="1" edge="1">
          <mxGeometry width="50" height="50" relative="1" as="geometry">
            <mxPoint x="-1030" y="-1027" as="sourcePoint" />
            <mxPoint x="-1010" y="-1027" as="targetPoint" />
          </mxGeometry>
        </mxCell>
        <mxCell id="yAR198e4R8kWAR2zlatF-15" value="" style="endArrow=none;html=1;rounded=0;shadow=0;strokeWidth=4;" parent="1" edge="1">
          <mxGeometry width="50" height="50" relative="1" as="geometry">
            <mxPoint x="-1010" y="-1027" as="sourcePoint" />
            <mxPoint x="-1000" y="-1047" as="targetPoint" />
          </mxGeometry>
        </mxCell>
        <mxCell id="yAR198e4R8kWAR2zlatF-16" value="" style="endArrow=none;html=1;rounded=0;shadow=0;strokeWidth=4;" parent="1" edge="1">
          <mxGeometry width="50" height="50" relative="1" as="geometry">
            <mxPoint x="-1030" y="-1027" as="sourcePoint" />
            <mxPoint x="-1040" y="-1047" as="targetPoint" />
          </mxGeometry>
        </mxCell>
        <mxCell id="yAR198e4R8kWAR2zlatF-17" value="" style="endArrow=none;html=1;rounded=0;shadow=0;strokeWidth=4;" parent="1" edge="1">
          <mxGeometry width="50" height="50" relative="1" as="geometry">
            <mxPoint x="-995" y="-1047" as="sourcePoint" />
            <mxPoint x="-955" y="-1047" as="targetPoint" />
          </mxGeometry>
        </mxCell>
        <mxCell id="yAR198e4R8kWAR2zlatF-18" value="" style="endArrow=none;html=1;rounded=0;shadow=0;strokeWidth=4;" parent="1" edge="1">
          <mxGeometry width="50" height="50" relative="1" as="geometry">
            <mxPoint x="-985" y="-1027" as="sourcePoint" />
            <mxPoint x="-965" y="-1027" as="targetPoint" />
          </mxGeometry>
        </mxCell>
        <mxCell id="yAR198e4R8kWAR2zlatF-19" value="" style="endArrow=none;html=1;rounded=0;shadow=0;strokeWidth=4;" parent="1" edge="1">
          <mxGeometry width="50" height="50" relative="1" as="geometry">
            <mxPoint x="-965" y="-1027" as="sourcePoint" />
            <mxPoint x="-955" y="-1047" as="targetPoint" />
          </mxGeometry>
        </mxCell>
        <mxCell id="yAR198e4R8kWAR2zlatF-20" value="" style="endArrow=none;html=1;rounded=0;shadow=0;strokeWidth=4;" parent="1" edge="1">
          <mxGeometry width="50" height="50" relative="1" as="geometry">
            <mxPoint x="-985" y="-1027" as="sourcePoint" />
            <mxPoint x="-995" y="-1047" as="targetPoint" />
          </mxGeometry>
        </mxCell>
        <mxCell id="yAR198e4R8kWAR2zlatF-21" value="" style="endArrow=none;html=1;rounded=0;shadow=0;strokeWidth=4;" parent="1" edge="1">
          <mxGeometry width="50" height="50" relative="1" as="geometry">
            <mxPoint x="-1500" y="-1047" as="sourcePoint" />
            <mxPoint x="-1460" y="-1047" as="targetPoint" />
          </mxGeometry>
        </mxCell>
        <mxCell id="yAR198e4R8kWAR2zlatF-22" value="" style="endArrow=none;html=1;rounded=0;shadow=0;strokeWidth=4;" parent="1" edge="1">
          <mxGeometry width="50" height="50" relative="1" as="geometry">
            <mxPoint x="-1490" y="-1027" as="sourcePoint" />
            <mxPoint x="-1470" y="-1027" as="targetPoint" />
          </mxGeometry>
        </mxCell>
        <mxCell id="yAR198e4R8kWAR2zlatF-23" value="" style="endArrow=none;html=1;rounded=0;shadow=0;strokeWidth=4;" parent="1" edge="1">
          <mxGeometry width="50" height="50" relative="1" as="geometry">
            <mxPoint x="-1470" y="-1027" as="sourcePoint" />
            <mxPoint x="-1460" y="-1047" as="targetPoint" />
          </mxGeometry>
        </mxCell>
        <mxCell id="yAR198e4R8kWAR2zlatF-24" value="" style="endArrow=none;html=1;rounded=0;shadow=0;strokeWidth=4;" parent="1" edge="1">
          <mxGeometry width="50" height="50" relative="1" as="geometry">
            <mxPoint x="-1490" y="-1027" as="sourcePoint" />
            <mxPoint x="-1500" y="-1047" as="targetPoint" />
          </mxGeometry>
        </mxCell>
        <mxCell id="yAR198e4R8kWAR2zlatF-25" value="" style="endArrow=none;html=1;rounded=0;strokeWidth=3;strokeColor=#999999;exitX=0.75;exitY=0;exitDx=0;exitDy=0;" parent="1" source="_pNcX6U958TQj2iGUCa4-227" edge="1">
          <mxGeometry width="50" height="50" relative="1" as="geometry">
            <mxPoint x="-1275" y="-1210" as="sourcePoint" />
            <mxPoint x="-845" y="-1235" as="targetPoint" />
            <Array as="points">
              <mxPoint x="-1277" y="-1235" />
            </Array>
          </mxGeometry>
        </mxCell>
        <mxCell id="yAR198e4R8kWAR2zlatF-26" value="" style="endArrow=none;html=1;rounded=0;strokeColor=#999999;strokeWidth=3;" parent="1" edge="1">
          <mxGeometry width="50" height="50" relative="1" as="geometry">
            <mxPoint x="-1305" y="-1047" as="sourcePoint" />
            <mxPoint x="-1305" y="-1072" as="targetPoint" />
          </mxGeometry>
        </mxCell>
        <mxCell id="yAR198e4R8kWAR2zlatF-27" value="" style="endArrow=none;html=1;rounded=0;strokeColor=#999999;strokeWidth=3;" parent="1" edge="1">
          <mxGeometry width="50" height="50" relative="1" as="geometry">
            <mxPoint x="-1245" y="-1047" as="sourcePoint" />
            <mxPoint x="-1245" y="-1072" as="targetPoint" />
          </mxGeometry>
        </mxCell>
        <mxCell id="yAR198e4R8kWAR2zlatF-28" value="" style="endArrow=none;html=1;rounded=0;strokeColor=#999999;strokeWidth=3;" parent="1" edge="1">
          <mxGeometry width="50" height="50" relative="1" as="geometry">
            <mxPoint x="-1185" y="-1047" as="sourcePoint" />
            <mxPoint x="-1185" y="-1072" as="targetPoint" />
          </mxGeometry>
        </mxCell>
        <mxCell id="yAR198e4R8kWAR2zlatF-29" value="" style="endArrow=none;html=1;rounded=0;strokeColor=#999999;strokeWidth=3;" parent="1" edge="1">
          <mxGeometry width="50" height="50" relative="1" as="geometry">
            <mxPoint x="-1030" y="-1047" as="sourcePoint" />
            <mxPoint x="-1030" y="-1072" as="targetPoint" />
          </mxGeometry>
        </mxCell>
        <mxCell id="yAR198e4R8kWAR2zlatF-30" value="" style="endArrow=none;html=1;rounded=0;strokeColor=#999999;strokeWidth=3;" parent="1" edge="1">
          <mxGeometry width="50" height="50" relative="1" as="geometry">
            <mxPoint x="-985" y="-1047" as="sourcePoint" />
            <mxPoint x="-985" y="-1072" as="targetPoint" />
          </mxGeometry>
        </mxCell>
        <mxCell id="yAR198e4R8kWAR2zlatF-31" value="" style="endArrow=none;html=1;rounded=0;strokeColor=#000000;strokeWidth=4;" parent="1" edge="1">
          <mxGeometry width="50" height="50" relative="1" as="geometry">
            <mxPoint x="-1310" y="-1037" as="sourcePoint" />
            <mxPoint x="-1525" y="-1037" as="targetPoint" />
            <Array as="points">
              <mxPoint x="-1340" y="-1037" />
              <mxPoint x="-1340" y="-1017" />
              <mxPoint x="-1525" y="-1017" />
            </Array>
          </mxGeometry>
        </mxCell>
        <mxCell id="yAR198e4R8kWAR2zlatF-32" value="" style="endArrow=none;html=1;rounded=0;strokeColor=#000000;strokeWidth=4;" parent="1" edge="1">
          <mxGeometry width="50" height="50" relative="1" as="geometry">
            <mxPoint x="-1340" y="-1017" as="sourcePoint" />
            <mxPoint x="-1250" y="-1037" as="targetPoint" />
            <Array as="points">
              <mxPoint x="-1265" y="-1017" />
              <mxPoint x="-1265" y="-1037" />
            </Array>
          </mxGeometry>
        </mxCell>
        <mxCell id="yAR198e4R8kWAR2zlatF-33" value="" style="endArrow=none;html=1;rounded=0;strokeColor=#000000;strokeWidth=4;" parent="1" edge="1">
          <mxGeometry width="50" height="50" relative="1" as="geometry">
            <mxPoint x="-1265" y="-1017" as="sourcePoint" />
            <mxPoint x="-1190" y="-1037" as="targetPoint" />
            <Array as="points">
              <mxPoint x="-1200" y="-1017" />
              <mxPoint x="-1200" y="-1037" />
            </Array>
          </mxGeometry>
        </mxCell>
        <mxCell id="yAR198e4R8kWAR2zlatF-34" value="" style="endArrow=none;html=1;rounded=0;strokeColor=#000000;strokeWidth=4;" parent="1" edge="1">
          <mxGeometry width="50" height="50" relative="1" as="geometry">
            <mxPoint x="-1200" y="-1017" as="sourcePoint" />
            <mxPoint x="-1035" y="-1037" as="targetPoint" />
            <Array as="points">
              <mxPoint x="-1050" y="-1017" />
              <mxPoint x="-1050" y="-1037" />
            </Array>
          </mxGeometry>
        </mxCell>
        <mxCell id="yAR198e4R8kWAR2zlatF-35" value="" style="endArrow=none;html=1;rounded=0;strokeColor=#000000;strokeWidth=4;" parent="1" edge="1">
          <mxGeometry width="50" height="50" relative="1" as="geometry">
            <mxPoint x="-1050" y="-1017" as="sourcePoint" />
            <mxPoint x="-990" y="-1037" as="targetPoint" />
            <Array as="points">
              <mxPoint x="-1000" y="-1017" />
              <mxPoint x="-1000" y="-1037" />
            </Array>
          </mxGeometry>
        </mxCell>
        <mxCell id="yAR198e4R8kWAR2zlatF-36" value="" style="endArrow=classic;html=1;rounded=0;strokeColor=#000000;strokeWidth=4;" parent="1" edge="1">
          <mxGeometry width="50" height="50" relative="1" as="geometry">
            <mxPoint x="-1480" y="-1027" as="sourcePoint" />
            <mxPoint x="-1480" y="-917" as="targetPoint" />
          </mxGeometry>
        </mxCell>
        <mxCell id="yAR198e4R8kWAR2zlatF-37" value="" style="endArrow=classic;html=1;rounded=0;strokeColor=#000000;strokeWidth=4;" parent="1" edge="1">
          <mxGeometry width="50" height="50" relative="1" as="geometry">
            <mxPoint x="-1295" y="-1027" as="sourcePoint" />
            <mxPoint x="-1295" y="-922" as="targetPoint" />
          </mxGeometry>
        </mxCell>
        <mxCell id="yAR198e4R8kWAR2zlatF-38" value="" style="endArrow=classic;html=1;rounded=0;strokeColor=#000000;strokeWidth=4;" parent="1" edge="1">
          <mxGeometry width="50" height="50" relative="1" as="geometry">
            <mxPoint x="-1235" y="-1027" as="sourcePoint" />
            <mxPoint x="-1235" y="-922" as="targetPoint" />
          </mxGeometry>
        </mxCell>
        <mxCell id="yAR198e4R8kWAR2zlatF-39" value="" style="endArrow=classic;html=1;rounded=0;strokeColor=#000000;strokeWidth=4;" parent="1" edge="1">
          <mxGeometry width="50" height="50" relative="1" as="geometry">
            <mxPoint x="-1175" y="-1027" as="sourcePoint" />
            <mxPoint x="-1175" y="-927" as="targetPoint" />
          </mxGeometry>
        </mxCell>
        <mxCell id="yAR198e4R8kWAR2zlatF-40" value="" style="endArrow=classic;html=1;rounded=0;strokeColor=#000000;strokeWidth=4;" parent="1" edge="1">
          <mxGeometry width="50" height="50" relative="1" as="geometry">
            <mxPoint x="-1020" y="-1027" as="sourcePoint" />
            <mxPoint x="-1020" y="-997" as="targetPoint" />
          </mxGeometry>
        </mxCell>
        <mxCell id="yAR198e4R8kWAR2zlatF-41" value="" style="endArrow=classic;html=1;rounded=0;strokeColor=#000000;strokeWidth=4;" parent="1" edge="1">
          <mxGeometry width="50" height="50" relative="1" as="geometry">
            <mxPoint x="-975" y="-1027" as="sourcePoint" />
            <mxPoint x="-975" y="-997" as="targetPoint" />
          </mxGeometry>
        </mxCell>
        <mxCell id="yAR198e4R8kWAR2zlatF-82" value="" style="endArrow=none;html=1;rounded=0;strokeColor=#000000;strokeWidth=4;" parent="1" edge="1">
          <mxGeometry width="50" height="50" relative="1" as="geometry">
            <mxPoint x="-1795" y="-1097" as="sourcePoint" />
            <mxPoint x="-1210" y="-962" as="targetPoint" />
            <Array as="points">
              <mxPoint x="-1535" y="-1097" />
              <mxPoint x="-1535" y="-962" />
              <mxPoint x="-1350" y="-962" />
            </Array>
          </mxGeometry>
        </mxCell>
        <mxCell id="yAR198e4R8kWAR2zlatF-83" value="" style="endArrow=classic;html=1;rounded=0;strokeColor=#000000;strokeWidth=4;" parent="1" edge="1">
          <mxGeometry width="50" height="50" relative="1" as="geometry">
            <mxPoint x="-1535" y="-1097" as="sourcePoint" />
            <mxPoint x="-1470" y="-1047" as="targetPoint" />
            <Array as="points">
              <mxPoint x="-1470" y="-1097" />
            </Array>
          </mxGeometry>
        </mxCell>
        <mxCell id="yAR198e4R8kWAR2zlatF-84" value="VALIDO" style="text;html=1;strokeColor=none;fillColor=none;align=center;verticalAlign=middle;whiteSpace=wrap;rounded=0;" parent="1" vertex="1">
          <mxGeometry x="-1795" y="-1127" width="60" height="30" as="geometry" />
        </mxCell>
        <mxCell id="yAR198e4R8kWAR2zlatF-85" value="NOTTE" style="text;html=1;strokeColor=none;fillColor=none;align=center;verticalAlign=middle;whiteSpace=wrap;rounded=0;" parent="1" vertex="1">
          <mxGeometry x="-1805" y="-1067" width="60" height="30" as="geometry" />
        </mxCell>
        <mxCell id="yAR198e4R8kWAR2zlatF-86" value="" style="endArrow=none;html=1;rounded=0;shadow=0;strokeWidth=4;" parent="1" edge="1">
          <mxGeometry width="50" height="50" relative="1" as="geometry">
            <mxPoint x="-1050" y="-997" as="sourcePoint" />
            <mxPoint x="-1010" y="-997" as="targetPoint" />
          </mxGeometry>
        </mxCell>
        <mxCell id="yAR198e4R8kWAR2zlatF-87" value="" style="endArrow=none;html=1;rounded=0;shadow=0;strokeWidth=4;" parent="1" edge="1">
          <mxGeometry width="50" height="50" relative="1" as="geometry">
            <mxPoint x="-1040" y="-977" as="sourcePoint" />
            <mxPoint x="-1020" y="-977" as="targetPoint" />
          </mxGeometry>
        </mxCell>
        <mxCell id="yAR198e4R8kWAR2zlatF-88" value="" style="endArrow=none;html=1;rounded=0;shadow=0;strokeWidth=4;" parent="1" edge="1">
          <mxGeometry width="50" height="50" relative="1" as="geometry">
            <mxPoint x="-1020" y="-977" as="sourcePoint" />
            <mxPoint x="-1010" y="-997" as="targetPoint" />
          </mxGeometry>
        </mxCell>
        <mxCell id="yAR198e4R8kWAR2zlatF-89" value="" style="endArrow=none;html=1;rounded=0;shadow=0;strokeWidth=4;" parent="1" edge="1">
          <mxGeometry width="50" height="50" relative="1" as="geometry">
            <mxPoint x="-1040" y="-977" as="sourcePoint" />
            <mxPoint x="-1050" y="-997" as="targetPoint" />
          </mxGeometry>
        </mxCell>
        <mxCell id="yAR198e4R8kWAR2zlatF-90" value="" style="endArrow=none;html=1;rounded=0;shadow=0;strokeWidth=4;" parent="1" edge="1">
          <mxGeometry width="50" height="50" relative="1" as="geometry">
            <mxPoint x="-1005" y="-997" as="sourcePoint" />
            <mxPoint x="-965" y="-997" as="targetPoint" />
          </mxGeometry>
        </mxCell>
        <mxCell id="yAR198e4R8kWAR2zlatF-91" value="" style="endArrow=none;html=1;rounded=0;shadow=0;strokeWidth=4;" parent="1" edge="1">
          <mxGeometry width="50" height="50" relative="1" as="geometry">
            <mxPoint x="-995" y="-977" as="sourcePoint" />
            <mxPoint x="-975" y="-977" as="targetPoint" />
          </mxGeometry>
        </mxCell>
        <mxCell id="yAR198e4R8kWAR2zlatF-92" value="" style="endArrow=none;html=1;rounded=0;shadow=0;strokeWidth=4;" parent="1" edge="1">
          <mxGeometry width="50" height="50" relative="1" as="geometry">
            <mxPoint x="-975" y="-977" as="sourcePoint" />
            <mxPoint x="-965" y="-997" as="targetPoint" />
          </mxGeometry>
        </mxCell>
        <mxCell id="yAR198e4R8kWAR2zlatF-93" value="" style="endArrow=none;html=1;rounded=0;shadow=0;strokeWidth=4;" parent="1" edge="1">
          <mxGeometry width="50" height="50" relative="1" as="geometry">
            <mxPoint x="-995" y="-977" as="sourcePoint" />
            <mxPoint x="-1005" y="-997" as="targetPoint" />
          </mxGeometry>
        </mxCell>
        <mxCell id="yAR198e4R8kWAR2zlatF-94" value="" style="endArrow=none;html=1;rounded=0;strokeColor=#000000;strokeWidth=4;" parent="1" edge="1">
          <mxGeometry width="50" height="50" relative="1" as="geometry">
            <mxPoint x="-1210" y="-962" as="sourcePoint" />
            <mxPoint x="-1000" y="-987" as="targetPoint" />
            <Array as="points">
              <mxPoint x="-1010" y="-962" />
              <mxPoint x="-1010" y="-987" />
            </Array>
          </mxGeometry>
        </mxCell>
        <mxCell id="yAR198e4R8kWAR2zlatF-95" value="" style="endArrow=none;html=1;rounded=0;strokeColor=#000000;strokeWidth=4;" parent="1" edge="1">
          <mxGeometry width="50" height="50" relative="1" as="geometry">
            <mxPoint x="-1080" y="-962" as="sourcePoint" />
            <mxPoint x="-1045" y="-987" as="targetPoint" />
            <Array as="points">
              <mxPoint x="-1080" y="-987" />
            </Array>
          </mxGeometry>
        </mxCell>
        <mxCell id="yAR198e4R8kWAR2zlatF-96" value="" style="endArrow=classic;html=1;rounded=0;strokeColor=#000000;strokeWidth=4;" parent="1" edge="1">
          <mxGeometry width="50" height="50" relative="1" as="geometry">
            <mxPoint x="-1030" y="-977" as="sourcePoint" />
            <mxPoint x="-1030" y="-932" as="targetPoint" />
          </mxGeometry>
        </mxCell>
        <mxCell id="yAR198e4R8kWAR2zlatF-97" value="" style="endArrow=classic;html=1;rounded=0;strokeColor=#000000;strokeWidth=4;" parent="1" edge="1">
          <mxGeometry width="50" height="50" relative="1" as="geometry">
            <mxPoint x="-985" y="-977" as="sourcePoint" />
            <mxPoint x="-985" y="-932" as="targetPoint" />
          </mxGeometry>
        </mxCell>
        <mxCell id="yAR198e4R8kWAR2zlatF-98" value="" style="endArrow=none;html=1;rounded=0;strokeColor=#999999;strokeWidth=4;" parent="1" edge="1">
          <mxGeometry width="50" height="50" relative="1" as="geometry">
            <mxPoint x="-1040" y="-997" as="sourcePoint" />
            <mxPoint x="-1063.3156866776317" y="-1072" as="targetPoint" />
            <Array as="points">
              <mxPoint x="-1040" y="-1007" />
              <mxPoint x="-1063" y="-1007" />
            </Array>
          </mxGeometry>
        </mxCell>
        <mxCell id="yAR198e4R8kWAR2zlatF-101" value="" style="endArrow=none;html=1;rounded=0;strokeColor=#999999;strokeWidth=4;" parent="1" edge="1">
          <mxGeometry width="50" height="50" relative="1" as="geometry">
            <mxPoint x="-1040" y="-1007" as="sourcePoint" />
            <mxPoint x="-990" y="-997" as="targetPoint" />
            <Array as="points">
              <mxPoint x="-990" y="-1007" />
            </Array>
          </mxGeometry>
        </mxCell>
        <mxCell id="5M3Hs7W2gv-Dh-RzH1pC-2" value="" style="endArrow=none;html=1;rounded=0;shadow=0;strokeColor=#33FFFF;strokeWidth=4;" parent="1" edge="1">
          <mxGeometry width="50" height="50" relative="1" as="geometry">
            <mxPoint x="-1650" y="-1467" as="sourcePoint" />
            <mxPoint x="-1650" y="-2010" as="targetPoint" />
            <Array as="points" />
          </mxGeometry>
        </mxCell>
        <mxCell id="5M3Hs7W2gv-Dh-RzH1pC-1" value="" style="rhombus;whiteSpace=wrap;html=1;strokeWidth=4;" parent="1" vertex="1">
          <mxGeometry x="-1595" y="-2025" width="40" height="40" as="geometry" />
        </mxCell>
        <mxCell id="5M3Hs7W2gv-Dh-RzH1pC-4" value="" style="endArrow=none;html=1;rounded=0;shadow=0;strokeColor=#00FF00;strokeWidth=4;" parent="1" edge="1">
          <mxGeometry width="50" height="50" relative="1" as="geometry">
            <mxPoint x="-1640" y="-1447" as="sourcePoint" />
            <mxPoint x="-1640" y="-1960" as="targetPoint" />
            <Array as="points" />
          </mxGeometry>
        </mxCell>
        <mxCell id="5M3Hs7W2gv-Dh-RzH1pC-3" value="" style="rhombus;whiteSpace=wrap;html=1;strokeWidth=4;" parent="1" vertex="1">
          <mxGeometry x="-1565" y="-1980" width="40" height="40" as="geometry" />
        </mxCell>
        <mxCell id="5M3Hs7W2gv-Dh-RzH1pC-6" value="" style="endArrow=none;html=1;rounded=0;shadow=0;strokeColor=#990099;strokeWidth=4;" parent="1" edge="1">
          <mxGeometry width="50" height="50" relative="1" as="geometry">
            <mxPoint x="-1630" y="-1427" as="sourcePoint" />
            <mxPoint x="-1630" y="-1920" as="targetPoint" />
            <Array as="points" />
          </mxGeometry>
        </mxCell>
        <mxCell id="5M3Hs7W2gv-Dh-RzH1pC-5" value="" style="rhombus;whiteSpace=wrap;html=1;strokeWidth=4;" parent="1" vertex="1">
          <mxGeometry x="-1535" y="-1940" width="40" height="40" as="geometry" />
        </mxCell>
        <mxCell id="5M3Hs7W2gv-Dh-RzH1pC-7" value="" style="endArrow=none;html=1;rounded=0;strokeWidth=4;entryX=0.5;entryY=0;entryDx=0;entryDy=0;" parent="1" target="5M3Hs7W2gv-Dh-RzH1pC-5" edge="1">
          <mxGeometry width="50" height="50" relative="1" as="geometry">
            <mxPoint x="-1800" y="-2050" as="sourcePoint" />
            <mxPoint x="-1505" y="-2050" as="targetPoint" />
            <Array as="points">
              <mxPoint x="-1515" y="-2050" />
            </Array>
          </mxGeometry>
        </mxCell>
        <mxCell id="5M3Hs7W2gv-Dh-RzH1pC-8" value="" style="endArrow=none;html=1;rounded=0;strokeWidth=4;entryX=0.5;entryY=0;entryDx=0;entryDy=0;" parent="1" target="5M3Hs7W2gv-Dh-RzH1pC-3" edge="1">
          <mxGeometry width="50" height="50" relative="1" as="geometry">
            <mxPoint x="-1545" y="-2050" as="sourcePoint" />
            <mxPoint x="-1555" y="-1990" as="targetPoint" />
          </mxGeometry>
        </mxCell>
        <mxCell id="5M3Hs7W2gv-Dh-RzH1pC-9" value="" style="endArrow=none;html=1;rounded=0;strokeWidth=4;entryX=0.5;entryY=0;entryDx=0;entryDy=0;" parent="1" target="5M3Hs7W2gv-Dh-RzH1pC-1" edge="1">
          <mxGeometry width="50" height="50" relative="1" as="geometry">
            <mxPoint x="-1575" y="-2050" as="sourcePoint" />
            <mxPoint x="-1555" y="-1990" as="targetPoint" />
          </mxGeometry>
        </mxCell>
        <mxCell id="5M3Hs7W2gv-Dh-RzH1pC-10" value="&lt;font face=&quot;Comic Sans MS&quot;&gt;IA&lt;/font&gt;" style="text;html=1;strokeColor=none;fillColor=none;align=center;verticalAlign=middle;whiteSpace=wrap;rounded=0;rotation=90;" parent="1" vertex="1">
          <mxGeometry x="-1420" y="-2235" width="60" height="30" as="geometry" />
        </mxCell>
        <mxCell id="5M3Hs7W2gv-Dh-RzH1pC-11" value="&lt;font face=&quot;Comic Sans MS&quot;&gt;IB&lt;/font&gt;" style="text;html=1;strokeColor=none;fillColor=none;align=center;verticalAlign=middle;whiteSpace=wrap;rounded=0;rotation=90;" parent="1" vertex="1">
          <mxGeometry x="-1400" y="-2235" width="60" height="30" as="geometry" />
        </mxCell>
        <mxCell id="5M3Hs7W2gv-Dh-RzH1pC-13" value="&lt;font face=&quot;Comic Sans MS&quot;&gt;IC&lt;/font&gt;" style="text;html=1;strokeColor=none;fillColor=none;align=center;verticalAlign=middle;whiteSpace=wrap;rounded=0;rotation=90;" parent="1" vertex="1">
          <mxGeometry x="-1380" y="-2235" width="60" height="30" as="geometry" />
        </mxCell>
        <mxCell id="5M3Hs7W2gv-Dh-RzH1pC-14" value="&lt;font face=&quot;Comic Sans MS&quot;&gt;INVALIDO&lt;/font&gt;" style="text;html=1;strokeColor=none;fillColor=none;align=center;verticalAlign=middle;whiteSpace=wrap;rounded=0;rotation=90;" parent="1" vertex="1">
          <mxGeometry x="-1440" y="-2210" width="60" height="30" as="geometry" />
        </mxCell>
        <mxCell id="5M3Hs7W2gv-Dh-RzH1pC-17" value="FL1" style="text;html=1;strokeColor=none;fillColor=none;align=center;verticalAlign=middle;whiteSpace=wrap;rounded=0;fontFamily=Comic Sans MS;rotation=90;" parent="1" vertex="1">
          <mxGeometry x="-1490" y="-2230" width="60" height="30" as="geometry" />
        </mxCell>
        <mxCell id="5M3Hs7W2gv-Dh-RzH1pC-18" value="FL0" style="text;html=1;strokeColor=none;fillColor=none;align=center;verticalAlign=middle;whiteSpace=wrap;rounded=0;fontFamily=Comic Sans MS;rotation=90;" parent="1" vertex="1">
          <mxGeometry x="-1470" y="-2230" width="60" height="30" as="geometry" />
        </mxCell>
        <mxCell id="5M3Hs7W2gv-Dh-RzH1pC-19" value="DEMUX1" style="text;html=1;strokeColor=none;fillColor=none;align=center;verticalAlign=middle;whiteSpace=wrap;rounded=0;fontFamily=Comic Sans MS;" parent="1" vertex="1">
          <mxGeometry x="-1420" y="-2255" width="60" height="30" as="geometry" />
        </mxCell>
        <mxCell id="5M3Hs7W2gv-Dh-RzH1pC-20" value="START" style="text;html=1;strokeColor=none;fillColor=none;align=center;verticalAlign=middle;whiteSpace=wrap;rounded=0;fontFamily=Comic Sans MS;" parent="1" vertex="1">
          <mxGeometry x="-1800" y="-2075" width="60" height="30" as="geometry" />
        </mxCell>
        <mxCell id="5M3Hs7W2gv-Dh-RzH1pC-22" value="S1" style="text;html=1;strokeColor=none;fillColor=none;align=center;verticalAlign=middle;whiteSpace=wrap;rounded=0;fontFamily=Comic Sans MS;" parent="1" vertex="1">
          <mxGeometry x="-1654" y="-2035" width="60" height="30" as="geometry" />
        </mxCell>
        <mxCell id="5M3Hs7W2gv-Dh-RzH1pC-23" value="S2" style="text;html=1;strokeColor=none;fillColor=none;align=center;verticalAlign=middle;whiteSpace=wrap;rounded=0;fontFamily=Comic Sans MS;" parent="1" vertex="1">
          <mxGeometry x="-1640" y="-1985" width="60" height="30" as="geometry" />
        </mxCell>
        <mxCell id="5M3Hs7W2gv-Dh-RzH1pC-25" value="S3" style="text;html=1;strokeColor=none;fillColor=none;align=center;verticalAlign=middle;whiteSpace=wrap;rounded=0;fontFamily=Comic Sans MS;" parent="1" vertex="1">
          <mxGeometry x="-1630" y="-1947" width="60" height="30" as="geometry" />
        </mxCell>
        <mxCell id="5M3Hs7W2gv-Dh-RzH1pC-26" value="VAGG" style="text;html=1;strokeColor=none;fillColor=none;align=center;verticalAlign=middle;whiteSpace=wrap;rounded=0;fontFamily=Comic Sans MS;" parent="1" vertex="1">
          <mxGeometry x="-1330" y="-2310" width="60" height="30" as="geometry" />
        </mxCell>
        <mxCell id="5M3Hs7W2gv-Dh-RzH1pC-27" value="VVREGA" style="text;html=1;strokeColor=none;fillColor=none;align=center;verticalAlign=middle;whiteSpace=wrap;rounded=0;fontFamily=Comic Sans MS;" parent="1" vertex="1">
          <mxGeometry x="-1210" y="-2290" width="60" height="30" as="geometry" />
        </mxCell>
        <mxCell id="5M3Hs7W2gv-Dh-RzH1pC-28" value="REGB" style="text;html=1;strokeColor=none;fillColor=none;align=center;verticalAlign=middle;whiteSpace=wrap;rounded=0;fontFamily=Comic Sans MS;" parent="1" vertex="1">
          <mxGeometry x="-1220" y="-2265" width="60" height="30" as="geometry" />
        </mxCell>
        <mxCell id="5M3Hs7W2gv-Dh-RzH1pC-29" value="REGC" style="text;html=1;strokeColor=none;fillColor=none;align=center;verticalAlign=middle;whiteSpace=wrap;rounded=0;fontFamily=Comic Sans MS;" parent="1" vertex="1">
          <mxGeometry x="-1225" y="-2240" width="60" height="30" as="geometry" />
        </mxCell>
        <mxCell id="5M3Hs7W2gv-Dh-RzH1pC-30" value="" style="endArrow=none;html=1;strokeWidth=4;rounded=0;fontFamily=Comic Sans MS;strokeColor=#FF3333;dashed=1;dashPattern=1 1;" parent="1" edge="1">
          <mxGeometry width="50" height="50" relative="1" as="geometry">
            <mxPoint x="-1330" y="-2205.8" as="sourcePoint" />
            <mxPoint x="-1330" y="-2205" as="targetPoint" />
            <Array as="points">
              <mxPoint x="-1280" y="-2215" />
              <mxPoint x="-1290" y="-2090" />
              <mxPoint x="-1365" y="-2080" />
              <mxPoint x="-1365" y="-1885" />
              <mxPoint x="-1415" y="-1890" />
              <mxPoint x="-1420" y="-2120" />
              <mxPoint x="-1340" y="-2120" />
            </Array>
          </mxGeometry>
        </mxCell>
        <mxCell id="5M3Hs7W2gv-Dh-RzH1pC-31" value="CONTROLLOFINALEA" style="text;html=1;strokeColor=none;fillColor=none;align=center;verticalAlign=middle;whiteSpace=wrap;rounded=0;fontFamily=Comic Sans MS;" parent="1" vertex="1">
          <mxGeometry x="-1095" y="-2170" width="60" height="30" as="geometry" />
        </mxCell>
        <mxCell id="5M3Hs7W2gv-Dh-RzH1pC-32" value="NVREGA" style="text;html=1;strokeColor=none;fillColor=none;align=center;verticalAlign=middle;whiteSpace=wrap;rounded=0;fontFamily=Comic Sans MS;" parent="1" vertex="1">
          <mxGeometry x="-1550" y="-2110" width="60" height="30" as="geometry" />
        </mxCell>
        <mxCell id="5M3Hs7W2gv-Dh-RzH1pC-33" value="VVREGA" style="text;html=1;strokeColor=none;fillColor=none;align=center;verticalAlign=middle;whiteSpace=wrap;rounded=0;fontFamily=Comic Sans MS;rotation=0;" parent="1" vertex="1">
          <mxGeometry x="-1210" y="-1900" width="60" height="30" as="geometry" />
        </mxCell>
        <mxCell id="5M3Hs7W2gv-Dh-RzH1pC-36" value="" style="endArrow=classic;html=1;rounded=0;dashed=1;dashPattern=1 1;strokeColor=#CCD2F2;strokeWidth=4;fontFamily=Comic Sans MS;entryX=1;entryY=1;entryDx=0;entryDy=0;" parent="1" target="5M3Hs7W2gv-Dh-RzH1pC-32" edge="1">
          <mxGeometry width="50" height="50" relative="1" as="geometry">
            <mxPoint x="-1390" y="-1955" as="sourcePoint" />
            <mxPoint x="-1275" y="-2035" as="targetPoint" />
          </mxGeometry>
        </mxCell>
        <mxCell id="5M3Hs7W2gv-Dh-RzH1pC-37" value="OUTL" style="text;html=1;strokeColor=none;fillColor=none;align=center;verticalAlign=middle;whiteSpace=wrap;rounded=0;fontFamily=Comic Sans MS;rotation=90;" parent="1" vertex="1">
          <mxGeometry x="-1330" y="-2150" width="60" height="30" as="geometry" />
        </mxCell>
        <mxCell id="HU2NatgHXzRIS4ocHjyg-1" value="PREOP" style="text;html=1;strokeColor=none;fillColor=none;align=center;verticalAlign=middle;whiteSpace=wrap;rounded=0;" parent="1" vertex="1">
          <mxGeometry x="-1305" y="-1830" width="60" height="30" as="geometry" />
        </mxCell>
        <mxCell id="DXEqmJdUzfMJCfZ4-Oox-1" value="SOMMA" style="text;html=1;strokeColor=none;fillColor=none;align=center;verticalAlign=middle;whiteSpace=wrap;rounded=0;" vertex="1" parent="1">
          <mxGeometry x="-1385" y="-1736" width="60" height="30" as="geometry" />
        </mxCell>
        <mxCell id="DXEqmJdUzfMJCfZ4-Oox-4" value="SOTT" style="text;html=1;strokeColor=none;fillColor=none;align=center;verticalAlign=middle;whiteSpace=wrap;rounded=0;" vertex="1" parent="1">
          <mxGeometry x="-1285" y="-1720" width="60" height="30" as="geometry" />
        </mxCell>
      </root>
    </mxGraphModel>
  </diagram>
</mxfile>
